<svg xmlns="http://www.w3.org/2000/svg" xmlns:xlink="http://www.w3.org/1999/xlink" width="51cm" height="21cm" viewBox="-11 211 1004 420"><g><line style="fill:none;fill-opacity:0;stroke-width:1;stroke:#000" x1="278.938" x2="330.268" y1="267.814" y2="267.633"/><polyline style="fill:none;fill-opacity:0;stroke-width:1;stroke:#000" points="287.802 262.783 277.82 267.818 287.838 272.783"/><polyline style="fill:none;fill-opacity:0;stroke-width:1;stroke:#000" points="321.404 272.664 331.386 267.629 321.368 262.664"/></g><g><path style="fill:#fff" d="M 478.137 247.8 L 545.087,247.8 C 554.331,247.8 561.825,256.754 561.825,267.8 C 561.825,278.846 554.331,287.8 545.087,287.8 L 478.137,287.8 C 468.894,287.8 461.4,278.846 461.4,267.8 C 461.4,256.754 468.894,247.8 478.137,247.8z"/><path style="fill:none;fill-opacity:0;stroke-width:1;stroke:#000" d="M 478.137 247.8 L 545.087,247.8 C 554.331,247.8 561.825,256.754 561.825,267.8 C 561.825,278.846 554.331,287.8 545.087,287.8 L 478.137,287.8 C 468.894,287.8 461.4,278.846 461.4,267.8 C 461.4,256.754 468.894,247.8 478.137,247.8"/><text style="fill:#000;text-anchor:middle;font-family:sans-serif;font-style:normal;font-weight:400" x="511.612" y="271.8" font-size="12.8"><tspan x="511.612" y="271.8">cb</tspan></text></g><g><line style="fill:none;fill-opacity:0;stroke-width:1;stroke:#000" x1="405.736" x2="458.669" y1="267.579" y2="267.689"/><polyline style="fill:none;fill-opacity:0;stroke-width:1;stroke:#000" points="414.628 262.597 404.618 267.576 414.607 272.597"/><polyline style="fill:none;fill-opacity:0;stroke-width:1;stroke:#000" points="449.776 272.671 459.787 267.692 449.797 262.671"/></g><g><line style="fill:none;fill-opacity:0;stroke-width:1;stroke:#000" x1="564.524" x2="612.72" y1="267.14" y2="266.538"/><polyline style="fill:none;fill-opacity:0;stroke-width:1;stroke:#000" points="573.342 262.029 563.406 267.153 573.467 272.028"/><polyline style="fill:none;fill-opacity:0;stroke-width:1;stroke:#000" points="603.901 271.648 613.838 266.524 603.776 261.649"/></g><g><rect style="fill:#fff" width="40" height="53" x="376" y="398"/><rect style="fill:none;fill-opacity:0;stroke-width:1;stroke:#000" width="40" height="53" x="376" y="398"/><text style="fill:#000;text-anchor:middle;font-family:sans-serif;font-style:normal;font-weight:400" x="396" y="428.4" font-size="12.8"><tspan x="396" y="428.4">ti</tspan></text></g><g><path style="fill:#fff" d="M 473.137 404.8 L 540.087,404.8 C 549.331,404.8 556.825,413.754 556.825,424.8 C 556.825,435.846 549.331,444.8 540.087,444.8 L 473.137,444.8 C 463.894,444.8 456.4,435.846 456.4,424.8 C 456.4,413.754 463.894,404.8 473.137,404.8z"/><path style="fill:none;fill-opacity:0;stroke-width:1;stroke:#000" d="M 473.137 404.8 L 540.087,404.8 C 549.331,404.8 556.825,413.754 556.825,424.8 C 556.825,435.846 549.331,444.8 540.087,444.8 L 473.137,444.8 C 463.894,444.8 456.4,435.846 456.4,424.8 C 456.4,413.754 463.894,404.8 473.137,404.8"/><text style="fill:#000;text-anchor:middle;font-family:sans-serif;font-style:normal;font-weight:400" x="506.612" y="428.8" font-size="12.8"><tspan x="506.612" y="428.8">ci</tspan></text></g><g><line style="fill:none;fill-opacity:0;stroke-width:1;stroke:#000" x1="418.74" x2="453.688" y1="424.562" y2="424.656"/><polyline style="fill:none;fill-opacity:0;stroke-width:1;stroke:#000" points="427.635 419.586 417.622 424.559 427.608 429.586"/><polyline style="fill:none;fill-opacity:0;stroke-width:1;stroke:#000" points="444.793 429.632 454.806 424.659 444.82 419.632"/></g><g><rect style="fill:#fff" width="57.35" height="37" x="693.4" y="406.8"/><rect style="fill:none;fill-opacity:0;stroke-width:1;stroke:#000" width="57.35" height="37" x="693.4" y="406.8"/><text style="fill:#000;text-anchor:middle;font-family:sans-serif;font-style:normal;font-weight:400" x="722.075" y="429.2" font-size="12.8"><tspan x="722.075" y="429.2">ei</tspan></text></g><g><rect style="fill:#fff" width="70" height="41" x="333" y="247"/><rect style="fill:none;fill-opacity:0;stroke-width:1;stroke:#000" width="70" height="41" x="333" y="247"/><text style="fill:#000;text-anchor:middle;font-family:sans-serif;font-style:normal;font-weight:400" x="368" y="271.4" font-size="12.8"><tspan x="368" y="271.4">t</tspan></text></g><g><rect style="fill:#fff" width="58.05" height="37" x="310.976" y="292"/><rect style="fill:none;fill-opacity:0;stroke-width:1;stroke:#000" width="58.05" height="37" x="310.976" y="292"/><text style="fill:#000;text-anchor:middle;font-family:sans-serif;font-style:normal;font-weight:400" x="340.001" y="314.4" font-size="12.8"><tspan x="340.001" y="314.4">str_ta</tspan></text></g><g><rect style="fill:#fff" width="58.1" height="37" x="372.676" y="291.8"/><rect style="fill:none;fill-opacity:0;stroke-width:1;stroke:#000" width="58.1" height="37" x="372.676" y="291.8"/><text style="fill:#000;text-anchor:middle;font-family:sans-serif;font-style:normal;font-weight:400" x="401.726" y="314.2" font-size="12.8"><tspan x="401.726" y="314.2">str_tb</tspan></text></g><g><rect style="fill:#fff" width="52.85" height="37" x="370.3" y="455.8"/><rect style="fill:none;fill-opacity:0;stroke-width:1;stroke:#000" width="52.85" height="37" x="370.3" y="455.8"/><text style="fill:#000;text-anchor:middle;font-family:sans-serif;font-style:normal;font-weight:400" x="396.725" y="478.2" font-size="12.8"><tspan x="396.725" y="478.2">str_ti</tspan></text></g><text style="fill:#000;text-anchor:start;font-family:sans-serif;font-style:normal;font-weight:400" x="236" y="272" font-size="25.4"><tspan x="236" y="272">...</tspan></text><text style="fill:#000;text-anchor:start;font-family:sans-serif;font-style:normal;font-weight:400" x="51" y="275" font-size="22.578"><tspan x="51" y="275">Initial phrase:</tspan></text><text style="fill:#000;text-anchor:start;font-family:sans-serif;font-style:normal;font-weight:400" x="20.9" y="432.3" font-size="22.578"><tspan x="20.9" y="432.3">Inserted phrase:</tspan></text><g><line style="fill:none;fill-opacity:0;stroke-width:3;stroke-dasharray:4;stroke:#000" x1="373" x2="373" y1="391" y2="342.708"/><polyline style="fill:none;fill-opacity:0;stroke-width:3;stroke:#000" points="378 349.354 373 339.354 368 349.354"/></g><text style="fill:#000;text-anchor:start;font-family:sans-serif;font-style:normal;font-weight:400" x="298" y="398" font-size="12.8"><tspan x="298" y="398">Insert here</tspan></text><g><line style="fill:none;fill-opacity:0;stroke-width:1;stroke:red" x1="376" x2="423.641" y1="451" y2="388.775"/><polyline style="fill:none;fill-opacity:0;stroke-width:1;stroke:red" points="422.211 398.867 424.32 387.888 414.271 392.788"/></g><text style="fill:#000;text-anchor:start;font-family:sans-serif;font-style:normal;font-weight:400" x="429" y="389" font-size="12.8"><tspan x="429" y="389">Delete head of inserted text, keep str_ti</tspan></text><text style="fill:#000;text-anchor:start;font-family:sans-serif;font-style:normal;font-weight:400" x="631.9" y="268.9" font-size="25.4"><tspan x="631.9" y="268.9">...</tspan></text><text style="fill:#000;text-anchor:middle;font-family:sans-serif;font-style:normal;font-weight:400" x="510" y="223" font-size="12.8"><tspan x="510" y="223">cb may not exist</tspan> <tspan x="510" y="239">?</tspan></text><text style="fill:#000;text-anchor:start;font-family:sans-serif;font-style:normal;font-weight:400" x="609.9" y="426.65" font-size="25.4"><tspan x="609.9" y="426.65">...</tspan></text><g><line style="fill:none;fill-opacity:0;stroke-width:1;stroke:#000" x1="567.236" x2="601.764" y1="422.75" y2="422.75"/><polyline style="fill:none;fill-opacity:0;stroke-width:1;stroke:#000" points="576.118 417.75 566.118 422.75 576.118 427.75"/><polyline style="fill:none;fill-opacity:0;stroke-width:1;stroke:#000" points="592.882 427.75 602.882 422.75 592.882 417.75"/></g><g><line style="fill:none;fill-opacity:0;stroke-width:1;stroke:#000" x1="641.236" x2="685.764" y1="422.75" y2="422.75"/><polyline style="fill:none;fill-opacity:0;stroke-width:1;stroke:#000" points="650.118 417.75 640.118 422.75 650.118 427.75"/><polyline style="fill:none;fill-opacity:0;stroke-width:1;stroke:#000" points="676.882 427.75 686.882 422.75 676.882 417.75"/></g><text style="fill:#000;text-anchor:start;font-family:sans-serif;font-style:normal;font-weight:400" x="-10.1" y="573.004" font-size="22.578"><tspan x="-10.1" y="573.004">Combined phrase:</tspan></text><g><line style="fill:none;fill-opacity:0;stroke-width:1;stroke:#000" x1="278.838" x2="330.168" y1="567.718" y2="567.537"/><polyline style="fill:none;fill-opacity:0;stroke-width:1;stroke:#000" points="287.702 562.687 277.72 567.722 287.738 572.687"/><polyline style="fill:none;fill-opacity:0;stroke-width:1;stroke:#000" points="321.304 572.568 331.286 567.533 321.268 562.568"/></g><g><path style="fill:#fff" d="M 815.037 547.704 L 881.988,547.704 C 891.231,547.704 898.725,556.658 898.725,567.704 C 898.725,578.75 891.231,587.704 881.988,587.704 L 815.037,587.704 C 805.794,587.704 798.3,578.75 798.3,567.704 C 798.3,556.658 805.794,547.704 815.037,547.704z"/><path style="fill:none;fill-opacity:0;stroke-width:1;stroke:#000" d="M 815.037 547.704 L 881.988,547.704 C 891.231,547.704 898.725,556.658 898.725,567.704 C 898.725,578.75 891.231,587.704 881.988,587.704 L 815.037,587.704 C 805.794,587.704 798.3,578.75 798.3,567.704 C 798.3,556.658 805.794,547.704 815.037,547.704"/><text style="fill:#000;text-anchor:middle;font-family:sans-serif;font-style:normal;font-weight:400" x="848.512" y="571.704" font-size="12.8"><tspan x="848.512" y="571.704">cB</tspan></text></g><g><line style="fill:none;fill-opacity:0;stroke-width:1;stroke:#000" x1="740.884" x2="795.575" y1="567.263" y2="567.487"/><polyline style="fill:none;fill-opacity:0;stroke-width:1;stroke:#000" points="749.786 562.3 739.766 567.259 749.745 572.299"/><polyline style="fill:none;fill-opacity:0;stroke-width:1;stroke:#000" points="786.673 572.451 796.693 567.492 786.714 562.451"/></g><g><line style="fill:none;fill-opacity:0;stroke-width:1;stroke:#000" x1="901.439" x2="949.664" y1="567.294" y2="566.921"/><polyline style="fill:none;fill-opacity:0;stroke-width:1;stroke:#000" points="910.282 562.226 900.321 567.303 910.359 572.226"/><polyline style="fill:none;fill-opacity:0;stroke-width:1;stroke:#000" points="940.821 571.99 950.782 566.913 940.744 561.99"/></g><g><rect style="fill:#fff" width="70" height="41" x="332.9" y="546.904"/><rect style="fill:none;fill-opacity:0;stroke-width:1;stroke:#000" width="70" height="41" x="332.9" y="546.904"/><text style="fill:#000;text-anchor:middle;font-family:sans-serif;font-style:normal;font-weight:400" x="367.9" y="571.304" font-size="12.8"><tspan x="367.9" y="571.304">t</tspan></text></g><g><rect style="fill:#fff" width="58.05" height="37" x="308.876" y="591.904"/><rect style="fill:none;fill-opacity:0;stroke-width:1;stroke:#000" width="58.05" height="37" x="308.876" y="591.904"/><text style="fill:#000;text-anchor:middle;font-family:sans-serif;font-style:normal;font-weight:400" x="337.901" y="614.304" font-size="12.8"><tspan x="337.901" y="614.304">str_ta</tspan></text></g><g><rect style="fill:#fff" width="57.45" height="37" x="712.9" y="592.704"/><rect style="fill:none;fill-opacity:0;stroke-width:1;stroke:#000" width="57.45" height="37" x="712.9" y="592.704"/><text style="fill:#000;text-anchor:middle;font-family:sans-serif;font-style:normal;font-weight:400" x="741.625" y="615.104" font-size="12.8"><tspan x="741.625" y="615.104">str_tb</tspan></text></g><text style="fill:#000;text-anchor:start;font-family:sans-serif;font-style:normal;font-weight:400" x="235.9" y="571.904" font-size="25.4"><tspan x="235.9" y="571.904">...</tspan></text><text style="fill:#000;text-anchor:start;font-family:sans-serif;font-style:normal;font-weight:400" x="968.8" y="569.804" font-size="25.4"><tspan x="968.8" y="569.804">...</tspan></text><text style="fill:#000;text-anchor:middle;font-family:sans-serif;font-style:normal;font-weight:400" x="846.9" y="523.904" font-size="12.8"><tspan x="846.9" y="523.904">cb may not exist</tspan> <tspan x="846.9" y="539.904">?</tspan></text><g><rect style="fill:#fff" width="52.85" height="37" x="373.4" y="591.504"/><rect style="fill:none;fill-opacity:0;stroke-width:1;stroke:#000" width="52.85" height="37" x="373.4" y="591.504"/><text style="fill:#000;text-anchor:middle;font-family:sans-serif;font-style:normal;font-weight:400" x="399.825" y="613.904" font-size="12.8"><tspan x="399.825" y="613.904">str_ti</tspan></text></g><g><rect style="fill:#fff" width="55.75" height="37" x="693.95" y="454.55"/><rect style="fill:none;fill-opacity:0;stroke-width:1;stroke:#000" width="55.75" height="37" x="693.95" y="454.55"/><text style="fill:#000;text-anchor:middle;font-family:sans-serif;font-style:normal;font-weight:400" x="721.825" y="476.95" font-size="12.8"><tspan x="721.825" y="476.95">str_ei</tspan></text></g><g><path style="fill:#fff" d="M 461.035 546.754 L 527.986,546.754 C 537.229,546.754 544.723,555.708 544.723,566.754 C 544.723,577.8 537.229,586.754 527.986,586.754 L 461.035,586.754 C 451.792,586.754 444.298,577.8 444.298,566.754 C 444.298,555.708 451.792,546.754 461.035,546.754z"/><path style="fill:none;fill-opacity:0;stroke-width:1;stroke:#000" d="M 461.035 546.754 L 527.986,546.754 C 537.229,546.754 544.723,555.708 544.723,566.754 C 544.723,577.8 537.229,586.754 527.986,586.754 L 461.035,586.754 C 451.792,586.754 444.298,577.8 444.298,566.754 C 444.298,555.708 451.792,546.754 461.035,546.754"/><text style="fill:#000;text-anchor:middle;font-family:sans-serif;font-style:normal;font-weight:400" x="494.51" y="570.754" font-size="12.8"><tspan x="494.51" y="570.754">ci</tspan></text></g><g><line style="fill:none;fill-opacity:0;stroke-width:1;stroke:#000" x1="405.5" x2="442.062" y1="567.084" y2="566.773"/><polyline style="fill:none;fill-opacity:0;stroke-width:1;stroke:#000" points="414.339 562.009 404.382 567.094 414.424 572.008"/><polyline style="fill:none;fill-opacity:0;stroke-width:1;stroke:#000" points="433.223 571.848 443.18 566.764 433.138 561.849"/></g><g><rect style="fill:#fff" width="57.35" height="37" x="681.298" y="548.754"/><rect style="fill:none;fill-opacity:0;stroke-width:1;stroke:#000" width="57.35" height="37" x="681.298" y="548.754"/><text style="fill:#000;text-anchor:middle;font-family:sans-serif;font-style:normal;font-weight:400" x="709.973" y="571.154" font-size="12.8"><tspan x="709.973" y="571.154">ei</tspan></text></g><text style="fill:#000;text-anchor:start;font-family:sans-serif;font-style:normal;font-weight:400" x="597.798" y="568.604" font-size="25.4"><tspan x="597.798" y="568.604">...</tspan></text><g><line style="fill:none;fill-opacity:0;stroke-width:1;stroke:#000" x1="555.134" x2="589.662" y1="564.704" y2="564.704"/><polyline style="fill:none;fill-opacity:0;stroke-width:1;stroke:#000" points="564.016 559.704 554.016 564.704 564.016 569.704"/><polyline style="fill:none;fill-opacity:0;stroke-width:1;stroke:#000" points="580.78 569.704 590.78 564.704 580.78 559.704"/></g><g><line style="fill:none;fill-opacity:0;stroke-width:1;stroke:#000" x1="629.134" x2="673.662" y1="564.704" y2="564.704"/><polyline style="fill:none;fill-opacity:0;stroke-width:1;stroke:#000" points="638.016 559.704 628.016 564.704 638.016 569.704"/><polyline style="fill:none;fill-opacity:0;stroke-width:1;stroke:#000" points="664.78 569.704 674.78 564.704 664.78 559.704"/></g><g><rect style="fill:#fff" width="55.75" height="37" x="652.848" y="592.504"/><rect style="fill:none;fill-opacity:0;stroke-width:1;stroke:#000" width="55.75" height="37" x="652.848" y="592.504"/><text style="fill:#000;text-anchor:middle;font-family:sans-serif;font-style:normal;font-weight:400" x="680.723" y="614.904" font-size="12.8"><tspan x="680.723" y="614.904">str_ei</tspan></text></g><g><line style="fill:none;fill-opacity:0;stroke-width:1;stroke:#000" x1="316" x2="356.764" y1="345.75" y2="345.75"/><polyline style="fill:none;fill-opacity:0;stroke-width:1;stroke:#000" points="347.882 350.75 357.882 345.75 347.882 340.75"/></g><text style="fill:#000;text-anchor:middle;font-family:sans-serif;font-style:normal;font-weight:400" x="303" y="348.75" font-size="12.8"><tspan x="303" y="348.75">l_a</tspan> <tspan x="303" y="364.75">(length of str_ta)</tspan></text><text style="fill:#000;text-anchor:middle;font-family:sans-serif;font-style:normal;font-weight:400" x="445.6" y="352.95" font-size="12.8"><tspan x="445.6" y="352.95">l_b</tspan> <tspan x="445.6" y="368.95">(length of str_tb)</tspan></text><g><line style="fill:none;fill-opacity:0;stroke-width:1;stroke:#000" x1="430" x2="390.236" y1="346.75" y2="346.75"/><polyline style="fill:none;fill-opacity:0;stroke-width:1;stroke:#000" points="399.118 341.75 389.118 346.75 399.118 351.75"/></g></svg>