<svg xmlns="http://www.w3.org/2000/svg" xmlns:xlink="http://www.w3.org/1999/xlink" width="50cm" height="20cm" viewBox="-99 621 988 400"><text x="230.674" y="637.17" font-size="16.933" style="fill:#000;text-anchor:start;font-family:sans-serif;font-style:normal;font-weight:400"><tspan x="230.674" y="637.17">Data structure for x = \frac{1}{\sqrt{2}}</tspan></text><g><rect width="985.851" height="364.328" x="-97.135" y="655.218" style="fill:#e6e6fa"/><rect width="985.851" height="364.328" x="-97.135" y="655.218" style="fill:none;fill-opacity:0;stroke-width:2;stroke:#000"/></g><g><rect width="60.25" height="54" x="-77.161" y="836.484" style="fill:#1e90ff"/><rect width="60.25" height="54" x="-77.161" y="836.484" style="fill:none;fill-opacity:0;stroke-width:2;stroke:#000"/><text x="-47.036" y="859.384" font-size="12.8" style="fill:#000;text-anchor:middle;font-family:sans-serif;font-style:normal;font-weight:400"><tspan x="-47.036" y="859.384">Text</tspan> <tspan x="-47.036" y="875.384">&quot;x = &quot;</tspan></text></g><g><rect width="60.25" height="54" x="806.554" y="836.484" style="fill:#1e90ff"/><rect width="60.25" height="54" x="806.554" y="836.484" style="fill:none;fill-opacity:0;stroke-width:2;stroke:#000"/><text x="836.679" y="859.384" font-size="12.8" style="fill:#000;text-anchor:middle;font-family:sans-serif;font-style:normal;font-weight:400"><tspan x="836.679" y="859.384">Text</tspan> <tspan x="836.679" y="875.384">&quot;&quot;</tspan></text></g><g><g><path d="M 147.495 721.174 L 635.315,721.174 C 702.669,721.174 757.27,784.889 757.27,863.485 C 757.27,942.081 702.669,1005.8 635.315,1005.8 L 147.495,1005.8 C 80.1415,1005.8 25.5404,942.081 25.5404,863.485 C 25.5404,784.889 80.1415,721.174 147.495,721.174z" style="fill:#96ff96"/><path d="M 147.495 721.174 L 635.315,721.174 C 702.669,721.174 757.27,784.889 757.27,863.485 C 757.27,942.081 702.669,1005.8 635.315,1005.8 L 147.495,1005.8 C 80.1415,1005.8 25.5404,942.081 25.5404,863.485 C 25.5404,784.889 80.1415,721.174 147.495,721.174" style="fill:none;fill-opacity:0;stroke-width:2;stroke:#000"/></g><g><rect width="67.9" height="82.4" x="406.946" y="727" style="fill:#e6e6fa"/><rect width="67.9" height="82.4" x="406.946" y="727" style="fill:none;fill-opacity:0;stroke-width:2;stroke:#000"/></g><g><rect width="472" height="150.49" x="205.946" y="835.676" style="fill:#e6e6fa"/><rect width="472" height="150.49" x="205.946" y="835.676" style="fill:none;fill-opacity:0;stroke-width:2;stroke:#000"/></g><g><rect width="60.25" height="54" x="209.846" y="884.2" style="fill:#1e90ff"/><rect width="60.25" height="54" x="209.846" y="884.2" style="fill:none;fill-opacity:0;stroke-width:2;stroke:#000"/><text x="239.971" y="907.1" font-size="12.8" style="fill:#000;text-anchor:middle;font-family:sans-serif;font-style:normal;font-weight:400"><tspan x="239.971" y="907.1">Text</tspan> <tspan x="239.971" y="923.1">&quot;&quot;</tspan></text></g><g><rect width="60.25" height="54" x="610.846" y="884.2" style="fill:#1e90ff"/><rect width="60.25" height="54" x="610.846" y="884.2" style="fill:none;fill-opacity:0;stroke-width:2;stroke:#000"/><text x="640.971" y="907.1" font-size="12.8" style="fill:#000;text-anchor:middle;font-family:sans-serif;font-style:normal;font-weight:400"><tspan x="640.971" y="907.1">Text</tspan> <tspan x="640.971" y="923.1">&quot;&quot;</tspan></text></g><g><g><path d="M 353.277 845.4 L 526.611,845.4 C 550.543,845.4 569.944,874.86 569.944,911.2 C 569.944,947.54 550.543,977 526.611,977 L 353.277,977 C 329.345,977 309.944,947.54 309.944,911.2 C 309.944,874.86 329.345,845.4 353.277,845.4z" style="fill:#0f0"/><path d="M 353.277 845.4 L 526.611,845.4 C 550.543,845.4 569.944,874.86 569.944,911.2 C 569.944,947.54 550.543,977 526.611,977 L 353.277,977 C 329.345,977 309.944,947.54 309.944,911.2 C 309.944,874.86 329.345,845.4 353.277,845.4" style="fill:none;fill-opacity:0;stroke-width:2;stroke:#000"/></g><text x="340.844" y="916.8" font-size="12.8" style="fill:#000;text-anchor:start;font-family:sans-serif;font-style:normal;font-weight:400"><tspan x="340.844" y="916.8">Phrase* child</tspan></text><text x="341.844" y="867.4" font-size="16.933" style="fill:#000;text-anchor:start;font-family:sans-serif;font-style:normal;font-weight:400"><tspan x="341.844" y="867.4">Root : InlineConstruct</tspan></text><g><g><rect width="75" height="89.733" x="467.944" y="879.234" style="fill:#e6e6fa"/><rect width="75" height="89.733" x="467.944" y="879.234" style="fill:none;fill-opacity:0;stroke-width:2;stroke:#000"/><text x="476.944" y="902.834" font-size="13.547" style="fill:#000;text-anchor:start;font-family:sans-serif;font-style:normal;font-weight:400"><tspan x="476.944" y="902.834">Phrase</tspan></text></g><g><rect width="60.25" height="54" x="476.012" y="911.4" style="fill:#1e90ff"/><rect width="60.25" height="54" x="476.012" y="911.4" style="fill:none;fill-opacity:0;stroke-width:2;stroke:#000"/><text x="506.137" y="934.3" font-size="12.8" style="fill:#000;text-anchor:middle;font-family:sans-serif;font-style:normal;font-weight:400"><tspan x="506.137" y="934.3">Text</tspan> <tspan x="506.137" y="950.3">&quot;2&quot;</tspan></text></g></g><g><line x1="429.944" x2="454.475" y1="912" y2="911.154" style="fill:none;fill-opacity:0;stroke-width:2;stroke:#000"/><polyline points="446.888 916.419 456.709 911.077 446.543 906.425" style="fill:none;fill-opacity:0;stroke-width:2;stroke:#000"/></g></g><g><line x1="275.552" x2="305.472" y1="911.2" y2="911.2" style="fill:none;fill-opacity:0;stroke-width:2;stroke:#000"/><polyline points="283.316 906.2 273.316 911.2 283.316 916.2" style="fill:none;fill-opacity:0;stroke-width:2;stroke:#000"/><polyline points="297.708 916.2 307.708 911.2 297.708 906.2" style="fill:none;fill-opacity:0;stroke-width:2;stroke:#000"/></g><g><line x1="574.416" x2="605.39" y1="911.2" y2="911.2" style="fill:none;fill-opacity:0;stroke-width:2;stroke:#000"/><polyline points="582.18 906.2 572.18 911.2 582.18 916.2" style="fill:none;fill-opacity:0;stroke-width:2;stroke:#000"/><polyline points="597.626 916.2 607.626 911.2 597.626 906.2" style="fill:none;fill-opacity:0;stroke-width:2;stroke:#000"/></g><text x="214.946" y="857" font-size="13.547" style="fill:#000;text-anchor:start;font-family:sans-serif;font-style:normal;font-weight:400"><tspan x="214.946" y="857">Phrase</tspan></text><text x="269.846" y="786.976" font-size="12.8" style="fill:#000;text-anchor:start;font-family:sans-serif;font-style:normal;font-weight:400"><tspan x="269.846" y="786.976">Phrase* num</tspan></text><text x="68.747" y="917.1" font-size="12.8" style="fill:#000;text-anchor:start;font-family:sans-serif;font-style:normal;font-weight:400"><tspan x="68.747" y="917.1">Phrase* den</tspan></text><line x1="196.196" x2="683.96" y1="822.918" y2="823.404" style="fill:none;fill-opacity:0;stroke-width:6;stroke:#000"/><g><line x1="355.846" x2="387.177" y1="783.576" y2="783.035" style="fill:none;fill-opacity:0;stroke-width:2;stroke:#000"/><polyline points="379.5 788.168 389.412 782.997 379.327 778.17" style="fill:none;fill-opacity:0;stroke-width:2;stroke:#000"/></g><g><line x1="153.847" x2="184.151" y1="912.4" y2="912.489" style="fill:none;fill-opacity:0;stroke-width:2;stroke:#000"/><polyline points="176.373 917.466 186.388 912.495 176.402 907.466" style="fill:none;fill-opacity:0;stroke-width:2;stroke:#000"/></g><text x="120.214" y="745.26" font-size="16.933" style="fill:#000;text-anchor:start;font-family:sans-serif;font-style:normal;font-weight:400"><tspan x="120.214" y="745.26">Fraction : InlineConstruct</tspan></text><g><rect width="60.25" height="54" x="410.846" y="750.4" style="fill:#1e90ff"/><rect width="60.25" height="54" x="410.846" y="750.4" style="fill:none;fill-opacity:0;stroke-width:2;stroke:#000"/><text x="440.971" y="773.3" font-size="12.8" style="fill:#000;text-anchor:middle;font-family:sans-serif;font-style:normal;font-weight:400"><tspan x="440.971" y="773.3">Text</tspan> <tspan x="440.971" y="789.3">&quot;1&quot;</tspan></text></g><text x="416.846" y="742" font-size="13.547" style="fill:#000;text-anchor:start;font-family:sans-serif;font-style:normal;font-weight:400"><tspan x="416.846" y="742">Phrase</tspan></text></g><g><line x1="-11.434" x2="21.059" y1="863.484" y2="863.484" style="fill:none;fill-opacity:0;stroke-width:2;stroke:#000"/><polyline points="-3.671 858.484 -13.671 863.484 -3.671 868.484" style="fill:none;fill-opacity:0;stroke-width:2;stroke:#000"/><polyline points="13.296 868.484 23.296 863.484 13.296 858.484" style="fill:none;fill-opacity:0;stroke-width:2;stroke:#000"/></g><g><line x1="761.756" x2="801.082" y1="863.484" y2="863.484" style="fill:none;fill-opacity:0;stroke-width:2;stroke:#000"/><polyline points="769.52 858.484 759.52 863.484 769.52 868.484" style="fill:none;fill-opacity:0;stroke-width:2;stroke:#000"/><polyline points="793.318 868.484 803.318 863.484 793.318 858.484" style="fill:none;fill-opacity:0;stroke-width:2;stroke:#000"/></g><text x="354.764" y="688.946" font-size="19.756" style="fill:#000;text-anchor:start;font-family:sans-serif;font-style:normal;font-weight:400"><tspan x="354.764" y="688.946">Phrase</tspan></text></svg>