<svg xmlns="http://www.w3.org/2000/svg" xmlns:xlink="http://www.w3.org/1999/xlink" width="64cm" height="34cm" viewBox="-362 -5 1280 666"><g><path d="M 222.137 241 L 309.188,241 C 321.207,241 330.95,249.954 330.95,261 C 330.95,272.046 321.207,281 309.188,281 L 222.137,281 C 210.118,281 200.375,272.046 200.375,261 C 200.375,249.954 210.118,241 222.137,241z" style="fill:#fff"/><path d="M 222.137 241 L 309.188,241 C 321.207,241 330.95,249.954 330.95,261 C 330.95,272.046 321.207,281 309.188,281 L 222.137,281 C 210.118,281 200.375,272.046 200.375,261 C 200.375,249.954 210.118,241 222.137,241" style="fill:none;fill-opacity:0;stroke-width:2;stroke:#000"/><text x="265.662" y="265" font-size="12.8" style="fill:#000;text-anchor:middle;font-family:sans-serif;font-style:normal;font-weight:400"><tspan x="265.662" y="265">arctan(x)&apos; =</tspan></text></g><g><rect width="74" height="38" x="381" y="241" style="fill:#fff"/><rect width="74" height="38" x="381" y="241" style="fill:none;fill-opacity:0;stroke-width:2;stroke:#000"/><text x="418" y="263.9" font-size="12.8" style="fill:#000;text-anchor:middle;font-family:sans-serif;font-style:normal;font-weight:400"><tspan x="418" y="263.9">Fraction</tspan></text></g><g><path d="M 522.5 243 L 560.5,243 C 565.747,243 570,251.507 570,262 C 570,272.493 565.747,281 560.5,281 L 522.5,281 C 517.253,281 513,272.493 513,262 C 513,251.507 517.253,243 522.5,243z" style="fill:#fff"/><path d="M 522.5 243 L 560.5,243 C 565.747,243 570,251.507 570,262 C 570,272.493 565.747,281 560.5,281 L 522.5,281 C 517.253,281 513,272.493 513,262 C 513,251.507 517.253,243 522.5,243" style="fill:none;fill-opacity:0;stroke-width:2;stroke:#000"/><text x="541.5" y="266" font-size="12.8" style="fill:#000;text-anchor:middle;font-family:sans-serif;font-style:normal;font-weight:400"><tspan x="541.5" y="266">, i =</tspan></text></g><g><path d="M 207.667 436 L 246.333,436 C 251.672,436 256,444.283 256,454.5 C 256,464.717 251.672,473 246.333,473 L 207.667,473 C 202.328,473 198,464.717 198,454.5 C 198,444.283 202.328,436 207.667,436z" style="fill:#fff"/><path d="M 207.667 436 L 246.333,436 C 251.672,436 256,444.283 256,454.5 C 256,464.717 251.672,473 246.333,473 L 207.667,473 C 202.328,473 198,464.717 198,454.5 C 198,444.283 202.328,436 207.667,436" style="fill:none;fill-opacity:0;stroke-width:2;stroke:#000"/><text x="227" y="458.5" font-size="12.8" style="fill:#000;text-anchor:middle;font-family:sans-serif;font-style:normal;font-weight:400"><tspan x="227" y="458.5">1</tspan></text></g><g><path d="M 514.489 138 L 571.581,138 L 583,155 L 571.581,172 L 514.489,172 L 503.07,155 L 514.489,138z" style="fill:#fff"/><path d="M 514.489 138 L 571.581,138 L 583,155 L 571.581,172 L 514.489,172 L 503.07,155 L 514.489,138" style="fill:none;fill-opacity:0;stroke-width:2;stroke:#000"/><text x="543.035" y="159" font-size="12.8" style="fill:#000;text-anchor:middle;font-family:sans-serif;font-style:normal;font-weight:400"><tspan x="543.035" y="159">Line</tspan></text></g><g><path d="M 189.144 347.3 L 262.994,347.3 L 277.764,364.3 L 262.994,381.3 L 189.144,381.3 L 174.374,364.3 L 189.144,347.3z" style="fill:#fff"/><path d="M 189.144 347.3 L 262.994,347.3 L 277.764,364.3 L 262.994,381.3 L 189.144,381.3 L 174.374,364.3 L 189.144,347.3" style="fill:none;fill-opacity:0;stroke-width:2;stroke:#000"/><text x="226.069" y="368.3" font-size="12.8" style="fill:#000;text-anchor:middle;font-family:sans-serif;font-style:normal;font-weight:400"><tspan x="226.069" y="368.3">SubPhrase</tspan></text></g><g><path d="M 459.144 347.3 L 532.994,347.3 L 547.764,364.3 L 532.994,381.3 L 459.144,381.3 L 444.374,364.3 L 459.144,347.3z" style="fill:#fff"/><path d="M 459.144 347.3 L 532.994,347.3 L 547.764,364.3 L 532.994,381.3 L 459.144,381.3 L 444.374,364.3 L 459.144,347.3" style="fill:none;fill-opacity:0;stroke-width:2;stroke:#000"/><text x="496.069" y="368.3" font-size="12.8" style="fill:#000;text-anchor:middle;font-family:sans-serif;font-style:normal;font-weight:400"><tspan x="496.069" y="368.3">SubPhrase</tspan></text></g><g><path d="M 366.567 437.3 L 405.233,437.3 C 410.572,437.3 414.9,445.583 414.9,455.8 C 414.9,466.017 410.572,474.3 405.233,474.3 L 366.567,474.3 C 361.228,474.3 356.9,466.017 356.9,455.8 C 356.9,445.583 361.228,437.3 366.567,437.3z" style="fill:#fff"/><path d="M 366.567 437.3 L 405.233,437.3 C 410.572,437.3 414.9,445.583 414.9,455.8 C 414.9,466.017 410.572,474.3 405.233,474.3 L 366.567,474.3 C 361.228,474.3 356.9,466.017 356.9,455.8 C 356.9,445.583 361.228,437.3 366.567,437.3" style="fill:none;fill-opacity:0;stroke-width:2;stroke:#000"/></g><g><rect width="95.2" height="38" x="456.3" y="436.3" style="fill:#fff"/><rect width="95.2" height="38" x="456.3" y="436.3" style="fill:none;fill-opacity:0;stroke-width:2;stroke:#000"/><text x="503.9" y="459.2" font-size="12.8" style="fill:#000;text-anchor:middle;font-family:sans-serif;font-style:normal;font-weight:400"><tspan x="503.9" y="459.2">Superscript</tspan></text></g><g><path d="M 380.144 528.3 L 453.994,528.3 L 468.764,545.3 L 453.994,562.3 L 380.144,562.3 L 365.374,545.3 L 380.144,528.3z" style="fill:#fff"/><path d="M 380.144 528.3 L 453.994,528.3 L 468.764,545.3 L 453.994,562.3 L 380.144,562.3 L 365.374,545.3 L 380.144,528.3" style="fill:none;fill-opacity:0;stroke-width:2;stroke:#000"/><text x="417.069" y="549.3" font-size="12.8" style="fill:#000;text-anchor:middle;font-family:sans-serif;font-style:normal;font-weight:400"><tspan x="417.069" y="549.3">SubPhrase</tspan></text></g><g><path d="M 567.144 528.3 L 640.994,528.3 L 655.764,545.3 L 640.994,562.3 L 567.144,562.3 L 552.374,545.3 L 567.144,528.3z" style="fill:#fff"/><path d="M 567.144 528.3 L 640.994,528.3 L 655.764,545.3 L 640.994,562.3 L 567.144,562.3 L 552.374,545.3 L 567.144,528.3" style="fill:none;fill-opacity:0;stroke-width:2;stroke:#000"/><text x="604.069" y="549.3" font-size="12.8" style="fill:#000;text-anchor:middle;font-family:sans-serif;font-style:normal;font-weight:400"><tspan x="604.069" y="549.3">SubPhrase</tspan></text></g><g><path d="M 605.567 437.3 L 644.233,437.3 C 649.572,437.3 653.9,445.583 653.9,455.8 C 653.9,466.017 649.572,474.3 644.233,474.3 L 605.567,474.3 C 600.228,474.3 595.9,466.017 595.9,455.8 C 595.9,445.583 600.228,437.3 605.567,437.3z" style="fill:#fff"/><path d="M 605.567 437.3 L 644.233,437.3 C 649.572,437.3 653.9,445.583 653.9,455.8 C 653.9,466.017 649.572,474.3 644.233,474.3 L 605.567,474.3 C 600.228,474.3 595.9,466.017 595.9,455.8 C 595.9,445.583 600.228,437.3 605.567,437.3" style="fill:none;fill-opacity:0;stroke-width:2;stroke:#000"/><text x="624.9" y="459.8" font-size="12.8" style="fill:#000;text-anchor:middle;font-family:sans-serif;font-style:normal;font-weight:400"><tspan x="624.9" y="459.8">+ 1</tspan></text></g><g><path d="M 398.567 616.3 L 437.233,616.3 C 442.572,616.3 446.9,624.583 446.9,634.8 C 446.9,645.017 442.572,653.3 437.233,653.3 L 398.567,653.3 C 393.228,653.3 388.9,645.017 388.9,634.8 C 388.9,624.583 393.228,616.3 398.567,616.3z" style="fill:#fff"/><path d="M 398.567 616.3 L 437.233,616.3 C 442.572,616.3 446.9,624.583 446.9,634.8 C 446.9,645.017 442.572,653.3 437.233,653.3 L 398.567,653.3 C 393.228,653.3 388.9,645.017 388.9,634.8 C 388.9,624.583 393.228,616.3 398.567,616.3" style="fill:none;fill-opacity:0;stroke-width:2;stroke:#000"/><text x="417.9" y="638.8" font-size="12.8" style="fill:#000;text-anchor:middle;font-family:sans-serif;font-style:normal;font-weight:400"><tspan x="417.9" y="638.8">x</tspan></text></g><g><path d="M 585.567 618.3 L 624.233,618.3 C 629.572,618.3 633.9,626.583 633.9,636.8 C 633.9,647.017 629.572,655.3 624.233,655.3 L 585.567,655.3 C 580.228,655.3 575.9,647.017 575.9,636.8 C 575.9,626.583 580.228,618.3 585.567,618.3z" style="fill:#fff"/><path d="M 585.567 618.3 L 624.233,618.3 C 629.572,618.3 633.9,626.583 633.9,636.8 C 633.9,647.017 629.572,655.3 624.233,655.3 L 585.567,655.3 C 580.228,655.3 575.9,647.017 575.9,636.8 C 575.9,626.583 580.228,618.3 585.567,618.3" style="fill:none;fill-opacity:0;stroke-width:2;stroke:#000"/><text x="604.9" y="640.8" font-size="12.8" style="fill:#000;text-anchor:middle;font-family:sans-serif;font-style:normal;font-weight:400"><tspan x="604.9" y="640.8">2</tspan></text></g><g><line x1="398.606" x2="398.569" y1="562.3" y2="611.828" style="fill:none;fill-opacity:0;stroke-width:2;stroke:#000"/><polyline points="393.575 604.06 398.568 614.064 403.575 604.068" style="fill:none;fill-opacity:0;stroke-width:2;stroke:#000"/></g><g><line x1="435.532" x2="437.093" y1="562.3" y2="611.83" style="fill:none;fill-opacity:0;stroke-width:2;stroke:#000"/><polyline points="431.851 604.228 437.164 614.065 441.846 603.912" style="fill:none;fill-opacity:0;stroke-width:2;stroke:#000"/></g><g><line x1="585.606" x2="585.569" y1="562.3" y2="613.828" style="fill:none;fill-opacity:0;stroke-width:2;stroke:#000"/><polyline points="580.575 606.06 585.568 616.064 590.575 606.068" style="fill:none;fill-opacity:0;stroke-width:2;stroke:#000"/></g><g><line x1="622.532" x2="624.098" y1="562.3" y2="613.83" style="fill:none;fill-opacity:0;stroke-width:2;stroke:#000"/><polyline points="618.865 606.221 624.166 616.065 628.86 605.918" style="fill:none;fill-opacity:0;stroke-width:2;stroke:#000"/></g><g><line x1="336.382" x2="375.555" y1="260.536" y2="260.279" style="fill:none;fill-opacity:0;stroke-width:2;stroke:#000"/><polyline points="344.113 255.485 334.146 260.55 344.179 265.485" style="fill:none;fill-opacity:0;stroke-width:2;stroke:#000"/><polyline points="367.824 265.329 377.791 260.264 367.759 255.33" style="fill:none;fill-opacity:0;stroke-width:2;stroke:#000"/></g><g><line x1="460.47" x2="507.571" y1="260.688" y2="261.451" style="fill:none;fill-opacity:0;stroke-width:2;stroke:#000"/><polyline points="468.314 255.814 458.234 260.652 468.152 265.813" style="fill:none;fill-opacity:0;stroke-width:2;stroke:#000"/><polyline points="499.727 266.324 509.806 261.487 499.889 256.325" style="fill:none;fill-opacity:0;stroke-width:2;stroke:#000"/></g><g><line x1="420.369" x2="450.842" y1="455.654" y2="455.525" style="fill:none;fill-opacity:0;stroke-width:2;stroke:#000"/><polyline points="428.112 450.621 418.133 455.663 428.154 460.621" style="fill:none;fill-opacity:0;stroke-width:2;stroke:#000"/><polyline points="443.1 460.558 453.078 455.515 443.057 450.558" style="fill:none;fill-opacity:0;stroke-width:2;stroke:#000"/></g><g><line x1="556.974" x2="590.532" y1="455.519" y2="455.658" style="fill:none;fill-opacity:0;stroke-width:2;stroke:#000"/><polyline points="564.759 450.551 554.738 455.51 564.718 460.551" style="fill:none;fill-opacity:0;stroke-width:2;stroke:#000"/><polyline points="582.748 460.626 592.768 455.667 582.789 450.626" style="fill:none;fill-opacity:0;stroke-width:2;stroke:#000"/></g><g><line x1="207.606" x2="207.661" y1="381.3" y2="431.528" style="fill:none;fill-opacity:0;stroke-width:2;stroke:#000"/><polyline points="202.653 423.769 207.664 433.764 212.653 423.758" style="fill:none;fill-opacity:0;stroke-width:2;stroke:#000"/></g><g><line x1="244.532" x2="246.187" y1="381.3" y2="431.53" style="fill:none;fill-opacity:0;stroke-width:2;stroke:#000"/><polyline points="240.934 423.935 246.26 433.765 250.928 423.606" style="fill:none;fill-opacity:0;stroke-width:2;stroke:#000"/></g><g><line x1="328.65" x2="504.706" y1="245.014" y2="165.344" style="fill:none;fill-opacity:0;stroke-width:2;stroke:#000"/><polyline points="333.662 237.258 326.613 245.936 337.785 246.369" style="fill:none;fill-opacity:0;stroke-width:2;stroke:#000"/><polyline points="499.694 173.1 506.743 164.422 495.571 163.989" style="fill:none;fill-opacity:0;stroke-width:2;stroke:#000"/></g><g><line x1="226.752" x2="226.125" y1="435.021" y2="385.772" style="fill:none;fill-opacity:0;stroke-width:2;stroke:#000"/><polyline points="231.223 393.471 226.096 383.536 221.224 393.599" style="fill:none;fill-opacity:0;stroke-width:2;stroke:#000"/></g><g><line x1="274.052" x2="377.326" y1="353.25" y2="281.55" style="fill:none;fill-opacity:0;stroke-width:2;stroke:#000"/><polyline points="277.578 344.715 272.215 354.525 283.281 352.929" style="fill:none;fill-opacity:0;stroke-width:2;stroke:#000"/><polyline points="373.8 290.085 379.163 280.275 368.097 281.871" style="fill:none;fill-opacity:0;stroke-width:2;stroke:#000"/></g><g><line x1="457.737" x2="437.907" y1="343.055" y2="283.245" style="fill:none;fill-opacity:0;stroke-width:2;stroke:#000"/><polyline points="450.547 337.259 458.44 345.178 460.039 334.112" style="fill:none;fill-opacity:0;stroke-width:2;stroke:#000"/><polyline points="445.097 289.041 437.204 281.122 435.605 292.188" style="fill:none;fill-opacity:0;stroke-width:2;stroke:#000"/></g><g><line x1="446.589" x2="477.586" y1="523.6" y2="477.999" style="fill:none;fill-opacity:0;stroke-width:2;stroke:#000"/><polyline points="446.819 514.368 445.332 525.449 455.089 519.99" style="fill:none;fill-opacity:0;stroke-width:2;stroke:#000"/><polyline points="477.357 487.23 478.843 476.149 469.086 481.609" style="fill:none;fill-opacity:0;stroke-width:2;stroke:#000"/></g><g><line x1="564.506" x2="530.338" y1="524.689" y2="477.911" style="fill:none;fill-opacity:0;stroke-width:2;stroke:#000"/><polyline points="555.889 521.368 565.825 526.494 563.964 515.47" style="fill:none;fill-opacity:0;stroke-width:2;stroke:#000"/><polyline points="538.955 481.232 529.019 476.106 530.88 487.13" style="fill:none;fill-opacity:0;stroke-width:2;stroke:#000"/></g><g><line x1="417.677" x2="417.121" y1="615.312" y2="566.772" style="fill:none;fill-opacity:0;stroke-width:2;stroke:#000"/><polyline points="422.21 574.478 417.096 564.536 412.21 574.593" style="fill:none;fill-opacity:0;stroke-width:2;stroke:#000"/></g><g><line x1="604.683" x2="604.12" y1="617.293" y2="566.772" style="fill:none;fill-opacity:0;stroke-width:2;stroke:#000"/><polyline points="609.206 574.48 604.095 564.536 599.207 574.591" style="fill:none;fill-opacity:0;stroke-width:2;stroke:#000"/></g><g><rect width="51.6" height="38" x="644.2" y="242" style="fill:#fff"/><rect width="51.6" height="38" x="644.2" y="242" style="fill:none;fill-opacity:0;stroke-width:2;stroke:#000"/><text x="670" y="264.9" font-size="12.8" style="fill:#000;text-anchor:middle;font-family:sans-serif;font-style:normal;font-weight:400"><tspan x="670" y="264.9">Root</tspan></text></g><g><path d="M 775.4 241.3 L 813.4,241.3 C 818.647,241.3 822.9,249.807 822.9,260.3 C 822.9,270.793 818.647,279.3 813.4,279.3 L 775.4,279.3 C 770.153,279.3 765.9,270.793 765.9,260.3 C 765.9,249.807 770.153,241.3 775.4,241.3z" style="fill:#fff"/><path d="M 775.4 241.3 L 813.4,241.3 C 818.647,241.3 822.9,249.807 822.9,260.3 C 822.9,270.793 818.647,279.3 813.4,279.3 L 775.4,279.3 C 770.153,279.3 765.9,270.793 765.9,260.3 C 765.9,249.807 770.153,241.3 775.4,241.3" style="fill:none;fill-opacity:0;stroke-width:2;stroke:#000"/></g><g><line x1="575.47" x2="638.728" y1="261.736" y2="261.243" style="fill:none;fill-opacity:0;stroke-width:2;stroke:#000"/><polyline points="583.194 256.675 573.234 261.753 583.272 266.675" style="fill:none;fill-opacity:0;stroke-width:2;stroke:#000"/><polyline points="631.004 266.304 640.964 261.226 630.926 256.304" style="fill:none;fill-opacity:0;stroke-width:2;stroke:#000"/></g><g><line x1="701.275" x2="760.43" y1="260.824" y2="260.491" style="fill:none;fill-opacity:0;stroke-width:2;stroke:#000"/><polyline points="709.01 255.78 699.039 260.837 709.066 265.78" style="fill:none;fill-opacity:0;stroke-width:2;stroke:#000"/><polyline points="752.694 265.535 762.666 260.479 752.638 255.535" style="fill:none;fill-opacity:0;stroke-width:2;stroke:#000"/></g><g><line x1="581.39" x2="764.582" y1="165.286" y2="245.08" style="fill:none;fill-opacity:0;stroke-width:2;stroke:#000"/><polyline points="590.505 163.802 579.34 164.393 586.511 172.97" style="fill:none;fill-opacity:0;stroke-width:2;stroke:#000"/><polyline points="755.467 246.564 766.632 245.973 759.461 237.396" style="fill:none;fill-opacity:0;stroke-width:2;stroke:#000"/></g><g><line x1="541.841" x2="542.96" y1="241.994" y2="176.471" style="fill:none;fill-opacity:0;stroke-width:2;stroke:#000"/><polyline points="547.826 184.32 542.998 174.236 537.828 184.149" style="fill:none;fill-opacity:0;stroke-width:2;stroke:#000"/></g><g><path d="M 632.994 317.3 L 706.844,317.3 L 721.614,334.3 L 706.844,351.3 L 632.994,351.3 L 618.224,334.3 L 632.994,317.3z" style="fill:#fff"/><path d="M 632.994 317.3 L 706.844,317.3 L 721.614,334.3 L 706.844,351.3 L 632.994,351.3 L 618.224,334.3 L 632.994,317.3" style="fill:none;fill-opacity:0;stroke-width:2;stroke:#000"/><text x="669.919" y="338.3" font-size="12.8" style="fill:#000;text-anchor:middle;font-family:sans-serif;font-style:normal;font-weight:400"><tspan x="669.919" y="338.3">SubPhrase</tspan></text></g><g><path d="M 650.567 378.3 L 689.233,378.3 C 694.572,378.3 698.9,386.583 698.9,396.8 C 698.9,407.017 694.572,415.3 689.233,415.3 L 650.567,415.3 C 645.228,415.3 640.9,407.017 640.9,396.8 C 640.9,386.583 645.228,378.3 650.567,378.3z" style="fill:#fff"/><path d="M 650.567 378.3 L 689.233,378.3 C 694.572,378.3 698.9,386.583 698.9,396.8 C 698.9,407.017 694.572,415.3 689.233,415.3 L 650.567,415.3 C 645.228,415.3 640.9,407.017 640.9,396.8 C 640.9,386.583 645.228,378.3 650.567,378.3" style="fill:none;fill-opacity:0;stroke-width:2;stroke:#000"/><text x="669.9" y="400.8" font-size="12.8" style="fill:#000;text-anchor:middle;font-family:sans-serif;font-style:normal;font-weight:400"><tspan x="669.9" y="400.8">-1</tspan></text></g><g><line x1="669.926" x2="669.965" y1="312.828" y2="285.375" style="fill:none;fill-opacity:0;stroke-width:2;stroke:#000"/><polyline points="664.937 305.057 669.923 315.064 674.937 305.071" style="fill:none;fill-opacity:0;stroke-width:2;stroke:#000"/><polyline points="674.954 293.146 669.969 283.139 664.954 293.132" style="fill:none;fill-opacity:0;stroke-width:2;stroke:#000"/></g><g><line x1="651.458" x2="650.714" y1="351.3" y2="373.83" style="fill:none;fill-opacity:0;stroke-width:2;stroke:#000"/><polyline points="645.973 365.906 650.64 376.065 655.967 366.236" style="fill:none;fill-opacity:0;stroke-width:2;stroke:#000"/></g><g><line x1="688.382" x2="689.093" y1="351.3" y2="373.83" style="fill:none;fill-opacity:0;stroke-width:2;stroke:#000"/><polyline points="683.851 366.228 689.163 376.065 693.846 365.912" style="fill:none;fill-opacity:0;stroke-width:2;stroke:#000"/></g><g><line x1="669.9" x2="669.917" y1="378.3" y2="355.772" style="fill:none;fill-opacity:0;stroke-width:2;stroke:#000"/><polyline points="674.911 363.54 669.918 353.536 664.911 363.532" style="fill:none;fill-opacity:0;stroke-width:2;stroke:#000"/></g><g><line x1="408.336" x2="456.042" y1="434.078" y2="384.522" style="fill:none;fill-opacity:0;stroke-width:2;stroke:#000"/><polyline points="410.118 425.017 406.785 435.689 417.322 431.953" style="fill:none;fill-opacity:0;stroke-width:2;stroke:#000"/><polyline points="454.26 393.583 457.593 382.911 447.056 386.647" style="fill:none;fill-opacity:0;stroke-width:2;stroke:#000"/></g><g><line x1="536.468" x2="598.719" y1="384.116" y2="434.577" style="fill:none;fill-opacity:0;stroke-width:2;stroke:#000"/><polyline points="545.648 385.121 534.731 382.708 539.351 392.889" style="fill:none;fill-opacity:0;stroke-width:2;stroke:#000"/><polyline points="589.539 433.572 600.456 435.985 595.836 425.804" style="fill:none;fill-opacity:0;stroke-width:2;stroke:#000"/></g><g><line x1="823.881" x2="869.528" y1="260.559" y2="260.961" style="fill:none;fill-opacity:0;stroke-width:2;stroke:#000"/><polyline points="861.72 265.892 871.764 260.98 861.808 255.893" style="fill:none;fill-opacity:0;stroke-width:2;stroke:#000"/></g><g><line x1="199.466" x2="154.471" y1="262.145" y2="262.923" style="fill:none;fill-opacity:0;stroke-width:2;stroke:#000"/><polyline points="162.148 257.789 152.236 262.961 162.321 267.788" style="fill:none;fill-opacity:0;stroke-width:2;stroke:#000"/></g><text x="829" y="251" font-size="12.8" style="fill:#000;text-anchor:start;font-family:sans-serif;font-style:normal;font-weight:400"><tspan x="829" y="251">next = nullptr</tspan></text><text x="96.9" y="251.2" font-size="12.8" style="fill:#000;text-anchor:start;font-family:sans-serif;font-style:normal;font-weight:400"><tspan x="96.9" y="251.2">prev = nullptr</tspan></text><g><line x1="197.044" x2="171.471" y1="455.249" y2="455.888" style="fill:none;fill-opacity:0;stroke-width:2;stroke:#000"/><polyline points="179.107 450.696 169.235 455.944 179.357 460.693" style="fill:none;fill-opacity:0;stroke-width:2;stroke:#000"/></g><text x="84.9" y="448.2" font-size="12.8" style="fill:#000;text-anchor:start;font-family:sans-serif;font-style:normal;font-weight:400"><tspan x="84.9" y="448.2">prev = nullptr</tspan></text><g><line x1="256.982" x2="278.528" y1="454.768" y2="454.96" style="fill:none;fill-opacity:0;stroke-width:2;stroke:#000"/><polyline points="270.72 459.891 280.764 454.98 270.809 449.891" style="fill:none;fill-opacity:0;stroke-width:2;stroke:#000"/></g><text x="260.9" y="445.2" font-size="12.8" style="fill:#000;text-anchor:start;font-family:sans-serif;font-style:normal;font-weight:400"><tspan x="260.9" y="445.2">nullptr</tspan></text><g><line x1="355.957" x2="335.469" y1="457" y2="457.821" style="fill:none;fill-opacity:0;stroke-width:2;stroke:#000"/><polyline points="343.026 452.514 333.234 457.91 343.426 462.506" style="fill:none;fill-opacity:0;stroke-width:2;stroke:#000"/></g><text x="312.9" y="447.2" font-size="12.8" style="fill:#000;text-anchor:start;font-family:sans-serif;font-style:normal;font-weight:400"><tspan x="312.9" y="447.2">nullptr</tspan></text><g><line x1="654.885" x2="673.528" y1="455.913" y2="455.983" style="fill:none;fill-opacity:0;stroke-width:2;stroke:#000"/><polyline points="665.745 460.954 675.764 455.992 665.783 450.954" style="fill:none;fill-opacity:0;stroke-width:2;stroke:#000"/></g><text x="659.9" y="475.2" font-size="12.8" style="fill:#000;text-anchor:start;font-family:sans-serif;font-style:normal;font-weight:400"><tspan x="659.9" y="475.2">nullptr</tspan></text><g><line x1="699.868" x2="724.529" y1="397.408" y2="397.909" style="fill:none;fill-opacity:0;stroke-width:2;stroke:#000"/><polyline points="716.665 402.751 726.764 397.955 716.868 392.753" style="fill:none;fill-opacity:0;stroke-width:2;stroke:#000"/></g><g><line x1="639.943" x2="614.469" y1="397.9" y2="398.836" style="fill:none;fill-opacity:0;stroke-width:2;stroke:#000"/><polyline points="622.044 393.554 612.235 398.918 622.411 403.548" style="fill:none;fill-opacity:0;stroke-width:2;stroke:#000"/></g><g><line x1="634.869" x2="660.529" y1="636.027" y2="635.365" style="fill:none;fill-opacity:0;stroke-width:2;stroke:#000"/><polyline points="652.897 640.564 662.765 635.308 652.639 630.567" style="fill:none;fill-opacity:0;stroke-width:2;stroke:#000"/></g><g><line x1="574.911" x2="548.472" y1="636.529" y2="636.29" style="fill:none;fill-opacity:0;stroke-width:2;stroke:#000"/><polyline points="556.281 631.361 546.236 636.27 556.19 641.36" style="fill:none;fill-opacity:0;stroke-width:2;stroke:#000"/></g><g><line x1="447.881" x2="469.528" y1="634.506" y2="634.294" style="fill:none;fill-opacity:0;stroke-width:2;stroke:#000"/><polyline points="461.814 639.37 471.764 634.272 461.716 629.37" style="fill:none;fill-opacity:0;stroke-width:2;stroke:#000"/></g><g><line x1="387.918" x2="364.472" y1="634.515" y2="634.292" style="fill:none;fill-opacity:0;stroke-width:2;stroke:#000"/><polyline points="372.283 629.366 362.236 634.271 372.188 639.366" style="fill:none;fill-opacity:0;stroke-width:2;stroke:#000"/></g><text x="293.9" y="655.45" font-size="12.8" style="fill:#000;text-anchor:start;font-family:sans-serif;font-style:normal;font-weight:400"><tspan x="293.9" y="655.45">prev = nullptr</tspan></text><text x="638.9" y="654.45" font-size="12.8" style="fill:#000;text-anchor:start;font-family:sans-serif;font-style:normal;font-weight:400"><tspan x="638.9" y="654.45">next = nullptr</tspan></text><text x="452.9" y="657.45" font-size="12.8" style="fill:#000;text-anchor:start;font-family:sans-serif;font-style:normal;font-weight:400"><tspan x="452.9" y="657.45">nullptr</tspan></text><text x="529.9" y="658.45" font-size="12.8" style="fill:#000;text-anchor:start;font-family:sans-serif;font-style:normal;font-weight:400"><tspan x="529.9" y="658.45">nullptr</tspan></text><text x="590.9" y="391.2" font-size="12.8" style="fill:#000;text-anchor:start;font-family:sans-serif;font-style:normal;font-weight:400"><tspan x="590.9" y="391.2">nullptr</tspan></text><text x="716.9" y="387.2" font-size="12.8" style="fill:#000;text-anchor:start;font-family:sans-serif;font-style:normal;font-weight:400"><tspan x="716.9" y="387.2">next = nullptr</tspan></text><g><line x1="503.07" x2="459.472" y1="155" y2="154.773" style="fill:none;fill-opacity:0;stroke-width:2;stroke:#000"/><polyline points="467.262 149.814 457.236 154.762 467.21 159.814" style="fill:none;fill-opacity:0;stroke-width:2;stroke:#000"/></g><g><line x1="583" x2="622.53" y1="155" y2="153.877" style="fill:none;fill-opacity:0;stroke-width:2;stroke:#000"/><polyline points="614.911 159.095 624.765 153.813 614.627 149.099" style="fill:none;fill-opacity:0;stroke-width:2;stroke:#000"/></g><text x="631.9" y="157.95" font-size="12.8" style="fill:#000;text-anchor:start;font-family:sans-serif;font-style:normal;font-weight:400"><tspan x="631.9" y="157.95">next = nullptr</tspan></text><text x="358.9" y="159.95" font-size="12.8" style="fill:#000;text-anchor:start;font-family:sans-serif;font-style:normal;font-weight:400"><tspan x="358.9" y="159.95">prev = nullptr</tspan></text><g><polygon points="507 -3.25 564 -3.25 583 15.75 583 91.75 507 91.75" style="fill:#fff"/><polygon points="507 -3.25 564 -3.25 583 15.75 583 91.75 507 91.75" style="fill:none;fill-opacity:0;stroke-width:2;stroke:#000"/><polyline points="564 -3.25 564 15.75 583 15.75 583 15.75" style="fill:none;fill-opacity:0;stroke-width:2;stroke:#000"/></g><text x="513" y="51.25" font-size="12.8" style="fill:#000;text-anchor:start;font-family:sans-serif;font-style:normal;font-weight:400"><tspan x="513" y="51.25">Document</tspan></text><g><line x1="536.602" x2="529.525" y1="92.739" y2="133.593" style="fill:none;fill-opacity:0;stroke-width:2;stroke:#000"/><polyline points="525.924 125.09 529.144 135.797 535.777 126.797" style="fill:none;fill-opacity:0;stroke-width:2;stroke:#000"/></g><g><line x1="551.366" x2="556.726" y1="92.739" y2="133.566" style="fill:none;fill-opacity:0;stroke-width:2;stroke:#000"/><polyline points="550.758 126.519 557.017 135.783 560.673 125.217" style="fill:none;fill-opacity:0;stroke-width:2;stroke:#000"/></g><g><rect width="110.1" height="28" x="-316.53" y="27.792" style="fill:#fff"/><rect width="110.1" height="28" x="-316.53" y="27.792" style="fill:none;fill-opacity:0;stroke-width:2;stroke:#000"/><text x="-261.48" y="46.792" font-size="16" style="fill:#000;text-anchor:middle;font-family:sans-serif;font-style:normal;font-weight:700">Document</text><rect width="110.1" height="36" x="-316.53" y="55.792" style="fill:#fff"/><rect width="110.1" height="36" x="-316.53" y="55.792" style="fill:none;fill-opacity:0;stroke-width:2;stroke:#000"/><text x="-313.53" y="72.992" font-size="12.8" style="fill:#000;text-anchor:start;font-family:monospace;font-style:normal;font-weight:400">+front: Line*</text><text x="-313.53" y="88.992" font-size="12.8" style="fill:#000;text-anchor:start;font-family:monospace;font-style:normal;font-weight:400">+back: Line*</text><rect width="110.1" height="8" x="-316.53" y="91.792" style="fill:#fff"/><rect width="110.1" height="8" x="-316.53" y="91.792" style="fill:none;fill-opacity:0;stroke-width:2;stroke:#000"/></g><g><rect width="110.1" height="28" x="-316.53" y="110.377" style="fill:#fff"/><rect width="110.1" height="28" x="-316.53" y="110.377" style="fill:none;fill-opacity:0;stroke-width:2;stroke:#000"/><text x="-261.48" y="129.377" font-size="16" style="fill:#000;text-anchor:middle;font-family:sans-serif;font-style:normal;font-weight:700">Phrase</text><rect width="110.1" height="36" x="-316.53" y="138.377" style="fill:#fff"/><rect width="110.1" height="36" x="-316.53" y="138.377" style="fill:none;fill-opacity:0;stroke-width:2;stroke:#000"/><text x="-313.53" y="155.577" font-size="12.8" style="fill:#000;text-anchor:start;font-family:monospace;font-style:normal;font-weight:400">+front: Text*</text><text x="-313.53" y="171.577" font-size="12.8" style="fill:#000;text-anchor:start;font-family:monospace;font-style:normal;font-weight:400">+back: Text*</text><rect width="110.1" height="8" x="-316.53" y="174.377" style="fill:#fff"/><rect width="110.1" height="8" x="-316.53" y="174.377" style="fill:none;fill-opacity:0;stroke-width:2;stroke:#000"/></g><g><rect width="127.65" height="28" x="-326.53" y="191.963" style="fill:#fff"/><rect width="127.65" height="28" x="-326.53" y="191.963" style="fill:none;fill-opacity:0;stroke-width:2;stroke:#000"/><text x="-262.705" y="210.963" font-size="16" style="fill:#000;text-anchor:middle;font-family:sans-serif;font-style:normal;font-weight:700">Line : Phrase</text><rect width="127.65" height="36" x="-326.53" y="219.963" style="fill:#fff"/><rect width="127.65" height="36" x="-326.53" y="219.963" style="fill:none;fill-opacity:0;stroke-width:2;stroke:#000"/><text x="-323.53" y="237.163" font-size="12.8" style="fill:#000;text-anchor:start;font-family:monospace;font-style:normal;font-weight:400">+next: Line*</text><text x="-323.53" y="253.163" font-size="12.8" style="fill:#000;text-anchor:start;font-family:monospace;font-style:normal;font-weight:400">+prev: Line*</text><rect width="127.65" height="8" x="-326.53" y="255.963" style="fill:#fff"/><rect width="127.65" height="8" x="-326.53" y="255.963" style="fill:none;fill-opacity:0;stroke-width:2;stroke:#000"/></g><g><rect width="186.25" height="28" x="-339.63" y="272.85" style="fill:#fff"/><rect width="186.25" height="28" x="-339.63" y="272.85" style="fill:none;fill-opacity:0;stroke-width:2;stroke:#000"/><text x="-246.505" y="291.85" font-size="16" style="fill:#000;text-anchor:middle;font-family:sans-serif;font-style:normal;font-weight:700">SubPhrase : Phrase</text><rect width="186.25" height="36" x="-339.63" y="300.85" style="fill:#fff"/><rect width="186.25" height="36" x="-339.63" y="300.85" style="fill:none;fill-opacity:0;stroke-width:2;stroke:#000"/><text x="-336.63" y="318.05" font-size="12.8" style="fill:#000;text-anchor:start;font-family:monospace;font-style:normal;font-weight:400">+parent: Construct*</text><text x="-336.63" y="334.05" font-size="12.8" style="fill:#000;text-anchor:start;font-family:monospace;font-style:normal;font-weight:400">+child_id: uint</text><rect width="186.25" height="8" x="-339.63" y="336.85" style="fill:#fff"/><rect width="186.25" height="8" x="-339.63" y="336.85" style="fill:none;fill-opacity:0;stroke-width:2;stroke:#000"/></g><g><rect width="140.9" height="28" x="-334.53" y="353.692" style="fill:#fff"/><rect width="140.9" height="28" x="-334.53" y="353.692" style="fill:none;fill-opacity:0;stroke-width:2;stroke:#000"/><text x="-264.08" y="372.692" font-size="16" style="fill:#000;text-anchor:middle;font-family:sans-serif;font-style:normal;font-weight:700">Text</text><rect width="140.9" height="52" x="-334.53" y="381.692" style="fill:#fff"/><rect width="140.9" height="52" x="-334.53" y="381.692" style="fill:none;fill-opacity:0;stroke-width:2;stroke:#000"/><text x="-331.53" y="398.892" font-size="12.8" style="fill:#000;text-anchor:start;font-family:monospace;font-style:normal;font-weight:400">+parent: Phrase*</text><text x="-331.53" y="414.892" font-size="12.8" style="fill:#000;text-anchor:start;font-family:monospace;font-style:normal;font-weight:400">+next: Construct*</text><text x="-331.53" y="430.892" font-size="12.8" style="fill:#000;text-anchor:start;font-family:monospace;font-style:normal;font-weight:400">+prev: Construct*</text><rect width="140.9" height="8" x="-334.53" y="433.692" style="fill:#fff"/><rect width="140.9" height="8" x="-334.53" y="433.692" style="fill:none;fill-opacity:0;stroke-width:2;stroke:#000"/></g><g><rect width="102.4" height="28" x="-315.53" y="451.692" style="fill:#fff"/><rect width="102.4" height="28" x="-315.53" y="451.692" style="fill:none;fill-opacity:0;stroke-width:2;stroke:#000"/><text x="-264.33" y="470.692" font-size="16" style="fill:#000;text-anchor:middle;font-family:sans-serif;font-style:normal;font-weight:700">Construct</text><rect width="102.4" height="36" x="-315.53" y="479.692" style="fill:#fff"/><rect width="102.4" height="36" x="-315.53" y="479.692" style="fill:none;fill-opacity:0;stroke-width:2;stroke:#000"/><text x="-312.53" y="496.892" font-size="12.8" style="fill:#000;text-anchor:start;font-family:monospace;font-style:normal;font-weight:400">+next: Text*</text><text x="-312.53" y="512.892" font-size="12.8" style="fill:#000;text-anchor:start;font-family:monospace;font-style:normal;font-weight:400">+prev: Text*</text><rect width="102.4" height="8" x="-315.53" y="515.692" style="fill:#fff"/><rect width="102.4" height="8" x="-315.53" y="515.692" style="fill:none;fill-opacity:0;stroke-width:2;stroke:#000"/></g><g><rect width="189.95" height="28" x="-138.997" y="27.75" style="fill:#fff"/><rect width="189.95" height="28" x="-138.997" y="27.75" style="fill:none;fill-opacity:0;stroke-width:2;stroke:#000"/><text x="-44.022" y="46.75" font-size="16" style="fill:#000;text-anchor:middle;font-family:sans-serif;font-style:normal;font-weight:700">Fraction : Construct</text><rect width="189.95" height="36" x="-138.997" y="55.75" style="fill:#fff"/><rect width="189.95" height="36" x="-138.997" y="55.75" style="fill:none;fill-opacity:0;stroke-width:2;stroke:#000"/><text x="-135.997" y="72.95" font-size="12.8" style="fill:#000;text-anchor:start;font-family:monospace;font-style:normal;font-weight:400">+num: SubPhrase*</text><text x="-135.997" y="88.95" font-size="12.8" style="fill:#000;text-anchor:start;font-family:monospace;font-style:normal;font-weight:400">+den: SubPhrase*</text><rect width="189.95" height="8" x="-138.997" y="91.75" style="fill:#fff"/><rect width="189.95" height="8" x="-138.997" y="91.75" style="fill:none;fill-opacity:0;stroke-width:2;stroke:#000"/></g><text x="-361.056" y="18.378" font-size="16.933" style="fill:#000;text-anchor:start;font-family:sans-serif;font-style:normal;font-weight:700"><tspan x="-361.056" y="18.378">Fundamental Classes</tspan></text><text x="-129.266" y="18.996" font-size="16.933" style="fill:#000;text-anchor:start;font-family:sans-serif;font-style:normal;font-weight:700"><tspan x="-129.266" y="18.996">Construct Library</tspan></text><g><rect width="219.85" height="28" x="-153.722" y="110.312" style="fill:#fff"/><rect width="219.85" height="28" x="-153.722" y="110.312" style="fill:none;fill-opacity:0;stroke-width:2;stroke:#000"/><text x="-43.797" y="129.312" font-size="16" style="fill:#000;text-anchor:middle;font-family:sans-serif;font-style:normal;font-weight:700">Superscript : Construct</text><rect width="219.85" height="36" x="-153.722" y="138.312" style="fill:#fff"/><rect width="219.85" height="36" x="-153.722" y="138.312" style="fill:none;fill-opacity:0;stroke-width:2;stroke:#000"/><text x="-150.722" y="155.512" font-size="12.8" style="fill:#000;text-anchor:start;font-family:monospace;font-style:normal;font-weight:400">+main: SubPhrase*</text><text x="-150.722" y="171.512" font-size="12.8" style="fill:#000;text-anchor:start;font-family:monospace;font-style:normal;font-weight:400">+superscript: SubPhrase*</text><rect width="219.85" height="8" x="-153.722" y="174.312" style="fill:#fff"/><rect width="219.85" height="8" x="-153.722" y="174.312" style="fill:none;fill-opacity:0;stroke-width:2;stroke:#000"/></g><g><rect width="157.2" height="28" x="-122.609" y="192.337" style="fill:#fff"/><rect width="157.2" height="28" x="-122.609" y="192.337" style="fill:none;fill-opacity:0;stroke-width:2;stroke:#000"/><text x="-44.009" y="211.337" font-size="16" style="fill:#000;text-anchor:middle;font-family:sans-serif;font-style:normal;font-weight:700">Root : Construct</text><rect width="157.2" height="20" x="-122.609" y="220.337" style="fill:#fff"/><rect width="157.2" height="20" x="-122.609" y="220.337" style="fill:none;fill-opacity:0;stroke-width:2;stroke:#000"/><text x="-119.609" y="237.537" font-size="12.8" style="fill:#000;text-anchor:start;font-family:monospace;font-style:normal;font-weight:400">+child: SubPhrase*</text><rect width="157.2" height="8" x="-122.609" y="240.337" style="fill:#fff"/><rect width="157.2" height="8" x="-122.609" y="240.337" style="fill:none;fill-opacity:0;stroke-width:2;stroke:#000"/></g></svg>