<svg xmlns="http://www.w3.org/2000/svg" xmlns:xlink="http://www.w3.org/1999/xlink" width="37cm" height="16cm" viewBox="29 82 739 308"><g><rect width="589.062" height="238.419" x="118.633" y="114.885" style="fill:#efefef"/><rect width="589.062" height="238.419" x="118.633" y="114.885" style="fill:none;fill-opacity:0;stroke-width:3;stroke:#000"/></g><line x1="48.271" x2="766.548" y1="234.676" y2="235.098" style="fill:none;fill-opacity:0;stroke-width:3;stroke-dasharray:4;stroke:#000"/><g><rect width="159.129" height="166.065" x="387" y="116.935" style="fill:#bfbfbf"/><rect width="159.129" height="166.065" x="387" y="116.935" style="fill:none;fill-opacity:0;stroke-width:2;stroke:#000"/><text x="466.564" y="205.773" font-size="19.191" style="fill:#000;text-anchor:middle;font-family:sans-serif;font-style:normal;font-weight:400"><tspan x="466.564" y="205.773">e</tspan></text></g><line x1="382.112" x2="360.104" y1="283.244" y2="283.244" style="fill:none;fill-opacity:0;stroke-width:1;stroke:#000"/><line x1="386.88" x2="387.13" y1="286.918" y2="303.918" style="fill:none;fill-opacity:0;stroke-width:1;stroke:#000"/><line x1="546.878" x2="546.628" y1="287.418" y2="302.918" style="fill:none;fill-opacity:0;stroke-width:1;stroke:#000"/><g><line x1="393.116" x2="541.142" y1="295.168" y2="295.168" style="fill:none;fill-opacity:0;stroke-width:1;stroke:#000"/><polyline points="401.998 290.168 391.998 295.168 401.998 300.168" style="fill:none;fill-opacity:0;stroke-width:1;stroke:#000"/><polyline points="532.26 300.168 542.26 295.168 532.26 290.168" style="fill:none;fill-opacity:0;stroke-width:1;stroke:#000"/></g><g><line x1="371.718" x2="371.718" y1="225.494" y2="122.979" style="fill:none;fill-opacity:0;stroke-width:1;stroke:#000"/><polyline points="366.718 216.612 371.718 226.612 376.718 216.612" style="fill:none;fill-opacity:0;stroke-width:1;stroke:#000"/><polyline points="376.718 131.861 371.718 121.861 366.718 131.861" style="fill:none;fill-opacity:0;stroke-width:1;stroke:#000"/></g><g><line x1="371.13" x2="371.13" y1="240.654" y2="277.432" style="fill:none;fill-opacity:0;stroke-width:1;stroke:#000"/><polyline points="376.13 249.536 371.13 239.536 366.13 249.536" style="fill:none;fill-opacity:0;stroke-width:1;stroke:#000"/><polyline points="366.13 268.55 371.13 278.55 376.13 268.55" style="fill:none;fill-opacity:0;stroke-width:1;stroke:#000"/></g><text x="459.258" y="311.748" font-size="19.756" style="fill:#000;text-anchor:start;font-family:sans-serif;font-style:normal;font-weight:400"><tspan x="459.258" y="311.748">w</tspan></text><text x="348.216" y="182.845" font-size="19.756" style="fill:#000;text-anchor:start;font-family:sans-serif;font-style:normal;font-weight:400"><tspan x="348.216" y="182.845">u</tspan></text><text x="342.028" y="265.116" font-size="19.756" style="fill:#000;text-anchor:start;font-family:sans-serif;font-style:normal;font-weight:400"><tspan x="342.028" y="265.116">d</tspan></text><g><rect width="179.192" height="70.407" x="119.368" y="199.246" style="fill:#bfbfbf"/><rect width="179.192" height="70.407" x="119.368" y="199.246" style="fill:none;fill-opacity:0;stroke-width:2;stroke:#000"/><text x="208.964" y="240.255" font-size="19.191" style="fill:#000;text-anchor:middle;font-family:sans-serif;font-style:normal;font-weight:400"><tspan x="208.964" y="240.255">e</tspan></text></g><line x1="113.556" x2="90.288" y1="197.687" y2="198.509" style="fill:none;fill-opacity:0;stroke-width:1;stroke:#000"/><line x1="111.508" x2="89.5" y1="270.506" y2="270.506" style="fill:none;fill-opacity:0;stroke-width:1;stroke:#000"/><line x1="119.775" x2="120.025" y1="277.18" y2="294.18" style="fill:none;fill-opacity:0;stroke-width:1;stroke:#000"/><line x1="298.774" x2="298.524" y1="277.68" y2="293.18" style="fill:none;fill-opacity:0;stroke-width:1;stroke:#000"/><g><line x1="126.011" x2="292.136" y1="285.429" y2="285.333" style="fill:none;fill-opacity:0;stroke-width:1;stroke:#000"/><polyline points="134.89 280.424 124.893 285.429 134.896 290.424" style="fill:none;fill-opacity:0;stroke-width:1;stroke:#000"/><polyline points="283.257 290.338 293.254 285.333 283.251 280.338" style="fill:none;fill-opacity:0;stroke-width:1;stroke:#000"/></g><g><line x1="100.883" x2="101.014" y1="200.569" y2="228.444" style="fill:none;fill-opacity:0;stroke-width:1;stroke:#000"/><polyline points="105.925 209.427 100.878 199.451 95.925 209.474" style="fill:none;fill-opacity:0;stroke-width:1;stroke:#000"/><polyline points="95.972 219.586 101.019 229.562 105.972 219.539" style="fill:none;fill-opacity:0;stroke-width:1;stroke:#000"/></g><g><line x1="100.504" x2="100.249" y1="238.416" y2="265.596" style="fill:none;fill-opacity:0;stroke-width:1;stroke:#000"/><polyline points="105.42 247.344 100.514 237.298 95.421 247.251" style="fill:none;fill-opacity:0;stroke-width:1;stroke:#000"/><polyline points="95.332 256.668 100.239 266.714 105.332 256.761" style="fill:none;fill-opacity:0;stroke-width:1;stroke:#000"/></g><text x="198.653" y="302.008" font-size="19.756" style="fill:#000;text-anchor:start;font-family:sans-serif;font-style:normal;font-weight:400"><tspan x="198.653" y="302.008">w</tspan></text><text x="73.776" y="216.526" font-size="19.756" style="fill:#000;text-anchor:start;font-family:sans-serif;font-style:normal;font-weight:400"><tspan x="73.776" y="216.526">u</tspan></text><text x="73.923" y="257.878" font-size="19.756" style="fill:#000;text-anchor:start;font-family:sans-serif;font-style:normal;font-weight:400"><tspan x="73.923" y="257.878">d</tspan></text><g><rect width="82.496" height="156.065" x="625.234" y="195.773" style="fill:#bfbfbf"/><rect width="82.496" height="156.065" x="625.234" y="195.773" style="fill:none;fill-opacity:0;stroke-width:2;stroke:#000"/><text x="666.482" y="279.611" font-size="19.191" style="fill:#000;text-anchor:middle;font-family:sans-serif;font-style:normal;font-weight:400"><tspan x="666.482" y="279.611">e</tspan></text></g><line x1="619.988" x2="597.98" y1="195.729" y2="195.729" style="fill:none;fill-opacity:0;stroke-width:1;stroke:#000"/><line x1="626.004" x2="626.254" y1="357.64" y2="374.64" style="fill:none;fill-opacity:0;stroke-width:1;stroke:#000"/><line x1="708.004" x2="707.754" y1="358.14" y2="373.64" style="fill:none;fill-opacity:0;stroke-width:1;stroke:#000"/><g><line x1="632.24" x2="699.816" y1="365.888" y2="365.82" style="fill:none;fill-opacity:0;stroke-width:1;stroke:#000"/><polyline points="641.117 360.879 631.122 365.889 641.127 370.879" style="fill:none;fill-opacity:0;stroke-width:1;stroke:#000"/><polyline points="690.939 370.829 700.934 365.819 690.929 360.829" style="fill:none;fill-opacity:0;stroke-width:1;stroke:#000"/></g><g><line x1="608.066" x2="608.24" y1="200.569" y2="228.418" style="fill:none;fill-opacity:0;stroke-width:1;stroke:#000"/><polyline points="613.121 209.419 608.059 199.451 603.122 209.482" style="fill:none;fill-opacity:0;stroke-width:1;stroke:#000"/><polyline points="603.185 219.567 608.247 229.536 613.184 219.505" style="fill:none;fill-opacity:0;stroke-width:1;stroke:#000"/></g><g><line x1="607.76" x2="608.044" y1="240.984" y2="347.224" style="fill:none;fill-opacity:0;stroke-width:1;stroke:#000"/><polyline points="612.784 249.853 607.757 239.866 602.784 249.879" style="fill:none;fill-opacity:0;stroke-width:1;stroke:#000"/><polyline points="603.02 338.355 608.047 348.342 613.02 338.329" style="fill:none;fill-opacity:0;stroke-width:1;stroke:#000"/></g><text x="657.882" y="382.468" font-size="19.756" style="fill:#000;text-anchor:start;font-family:sans-serif;font-style:normal;font-weight:400"><tspan x="657.882" y="382.468">w</tspan></text><text x="581.506" y="217.5" font-size="19.756" style="fill:#000;text-anchor:start;font-family:sans-serif;font-style:normal;font-weight:400"><tspan x="581.506" y="217.5">u</tspan></text><text x="586.314" y="300.066" font-size="19.756" style="fill:#000;text-anchor:start;font-family:sans-serif;font-style:normal;font-weight:400"><tspan x="586.314" y="300.066">d</tspan></text><text x="673.734" y="386.516" font-size="12.8" style="fill:#000;text-anchor:start;font-family:sans-serif;font-style:normal;font-weight:400"><tspan x="673.734" y="386.516">2</tspan></text><text x="214.44" y="245.122" font-size="12.8" style="fill:#000;text-anchor:start;font-family:sans-serif;font-style:normal;font-weight:400"><tspan x="214.44" y="245.122">0</tspan></text><text x="213.296" y="307.858" font-size="12.8" style="fill:#000;text-anchor:start;font-family:sans-serif;font-style:normal;font-weight:400"><tspan x="213.296" y="307.858">0</tspan></text><text x="85.178" y="221.882" font-size="12.8" style="fill:#000;text-anchor:start;font-family:sans-serif;font-style:normal;font-weight:400"><tspan x="85.178" y="221.882">0</tspan></text><text x="85.178" y="262.882" font-size="12.8" style="fill:#000;text-anchor:start;font-family:sans-serif;font-style:normal;font-weight:400"><tspan x="85.178" y="262.882">0</tspan></text><text x="474.498" y="316.332" font-size="12.8" style="fill:#000;text-anchor:start;font-family:sans-serif;font-style:normal;font-weight:400"><tspan x="474.498" y="316.332">1</tspan></text><text x="472.448" y="212.462" font-size="12.8" style="fill:#000;text-anchor:start;font-family:sans-serif;font-style:normal;font-weight:400"><tspan x="472.448" y="212.462">1</tspan></text><text x="359.636" y="185.517" font-size="12.8" style="fill:#000;text-anchor:start;font-family:sans-serif;font-style:normal;font-weight:400"><tspan x="359.636" y="185.517">1</tspan></text><text x="353.948" y="268.882" font-size="12.8" style="fill:#000;text-anchor:start;font-family:sans-serif;font-style:normal;font-weight:400"><tspan x="353.948" y="268.882">1</tspan></text><text x="672.502" y="284.91" font-size="12.8" style="fill:#000;text-anchor:start;font-family:sans-serif;font-style:normal;font-weight:400"><tspan x="672.502" y="284.91">2</tspan></text><text x="593.002" y="223.382" font-size="12.8" style="fill:#000;text-anchor:start;font-family:sans-serif;font-style:normal;font-weight:400"><tspan x="593.002" y="223.382">2</tspan></text><text x="597.666" y="305.598" font-size="12.8" style="fill:#000;text-anchor:start;font-family:sans-serif;font-style:normal;font-weight:400"><tspan x="597.666" y="305.598">2</tspan></text><text x="121.048" y="190.039" font-size="19.756" style="fill:#000;text-anchor:start;font-family:sans-serif;font-style:normal;font-weight:400"><tspan x="121.048" y="190.039">(x , y )</tspan></text><g><ellipse cx="119.114" cy="199.98" rx="3.153" ry="3.153" style="fill:#000"/><ellipse cx="119.114" cy="199.98" rx="3.153" ry="3.153" style="fill:none;fill-opacity:0;stroke-width:3;stroke:#000"/><ellipse cx="119.114" cy="199.98" rx="3.153" ry="3.153" style="fill:none;fill-opacity:0;stroke-width:3;stroke:#000"/></g><g><ellipse cx="387.975" cy="115.862" rx="3.153" ry="3.153" style="fill:#000"/><ellipse cx="387.975" cy="115.862" rx="3.153" ry="3.153" style="fill:none;fill-opacity:0;stroke-width:3;stroke:#000"/><ellipse cx="387.975" cy="115.862" rx="3.153" ry="3.153" style="fill:none;fill-opacity:0;stroke-width:3;stroke:#000"/></g><g><ellipse cx="625.507" cy="195.299" rx="3.153" ry="3.153" style="fill:#000"/><ellipse cx="625.507" cy="195.299" rx="3.153" ry="3.153" style="fill:none;fill-opacity:0;stroke-width:3;stroke:#000"/><ellipse cx="625.507" cy="195.299" rx="3.153" ry="3.153" style="fill:none;fill-opacity:0;stroke-width:3;stroke:#000"/></g><text x="138.9" y="195.819" font-size="12.8" style="fill:#000;text-anchor:start;font-family:sans-serif;font-style:normal;font-weight:400"><tspan x="138.9" y="195.819">0</tspan></text><text x="168.331" y="195.398" font-size="12.8" style="fill:#000;text-anchor:start;font-family:sans-serif;font-style:normal;font-weight:400"><tspan x="168.331" y="195.398">0</tspan></text><text x="374.35" y="102.65" font-size="19.756" style="fill:#000;text-anchor:start;font-family:sans-serif;font-style:normal;font-weight:400"><tspan x="374.35" y="102.65">(x , y )</tspan></text><text x="392.008" y="107.552" font-size="12.8" style="fill:#000;text-anchor:start;font-family:sans-serif;font-style:normal;font-weight:400"><tspan x="392.008" y="107.552">1</tspan></text><text x="423.12" y="107.552" font-size="12.8" style="fill:#000;text-anchor:start;font-family:sans-serif;font-style:normal;font-weight:400"><tspan x="423.12" y="107.552">1</tspan></text><text x="609.502" y="181.667" font-size="19.756" style="fill:#000;text-anchor:start;font-family:sans-serif;font-style:normal;font-weight:400"><tspan x="609.502" y="181.667">(x , y )</tspan></text><text x="628.002" y="185.308" font-size="12.8" style="fill:#000;text-anchor:start;font-family:sans-serif;font-style:normal;font-weight:400"><tspan x="628.002" y="185.308">2</tspan></text><text x="657.854" y="186.149" font-size="12.8" style="fill:#000;text-anchor:start;font-family:sans-serif;font-style:normal;font-weight:400"><tspan x="657.854" y="186.149">2</tspan></text><text x="94.733" y="100.67" font-size="19.756" style="fill:#000;text-anchor:start;font-family:sans-serif;font-style:normal;font-weight:400"><tspan x="94.733" y="100.67">(x , y )</tspan></text><g><ellipse cx="118.364" cy="114.484" rx="3.153" ry="3.153" style="fill:#000"/><ellipse cx="118.364" cy="114.484" rx="3.153" ry="3.153" style="fill:none;fill-opacity:0;stroke-width:3;stroke:#000"/><ellipse cx="118.364" cy="114.484" rx="3.153" ry="3.153" style="fill:none;fill-opacity:0;stroke-width:3;stroke:#000"/></g><text x="112.484" y="105.816" font-size="12.8" style="fill:#000;text-anchor:start;font-family:sans-serif;font-style:normal;font-weight:400"><tspan x="112.484" y="105.816">p</tspan></text><text x="141.619" y="105.221" font-size="12.8" style="fill:#000;text-anchor:start;font-family:sans-serif;font-style:normal;font-weight:400"><tspan x="141.619" y="105.221">p</tspan></text><line x1="106.707" x2="43.979" y1="114.281" y2="114.126" style="fill:none;fill-opacity:0;stroke-width:1;stroke:#000"/><g><line x1="54.91" x2="54.997" y1="120.334" y2="225.498" style="fill:none;fill-opacity:0;stroke-width:1;stroke:#000"/><polyline points="59.917 129.212 54.909 119.216 49.917 129.22" style="fill:none;fill-opacity:0;stroke-width:1;stroke:#000"/><polyline points="49.989 216.62 54.998 226.616 59.989 216.612" style="fill:none;fill-opacity:0;stroke-width:1;stroke:#000"/></g><text x="29.688" y="172.737" font-size="19.756" style="fill:#000;text-anchor:start;font-family:sans-serif;font-style:normal;font-weight:400"><tspan x="29.688" y="172.737">u</tspan></text><text x="41.931" y="173.889" font-size="12.8" style="fill:#000;text-anchor:start;font-family:sans-serif;font-style:normal;font-weight:400"><tspan x="41.931" y="173.889">p</tspan></text><g><line x1="54.839" x2="54.995" y1="242.496" y2="347.428" style="fill:none;fill-opacity:0;stroke-width:1;stroke:#000"/><polyline points="59.852 251.371 54.837 241.378 49.852 251.385" style="fill:none;fill-opacity:0;stroke-width:1;stroke:#000"/><polyline points="49.982 338.553 54.997 348.546 59.982 338.539" style="fill:none;fill-opacity:0;stroke-width:1;stroke:#000"/></g><line x1="110.523" x2="43.642" y1="351.872" y2="352.098" style="fill:none;fill-opacity:0;stroke-width:1;stroke:#000"/><text x="32.211" y="298.472" font-size="19.756" style="fill:#000;text-anchor:start;font-family:sans-serif;font-style:normal;font-weight:400"><tspan x="32.211" y="298.472">d</tspan></text><text x="43.142" y="302.954" font-size="12.8" style="fill:#000;text-anchor:start;font-family:sans-serif;font-style:normal;font-weight:400"><tspan x="43.142" y="302.954">p</tspan></text><g><line x1="379.132" x2="308.606" y1="295.473" y2="295.943" style="fill:none;fill-opacity:0;stroke-width:1;stroke:#000"/><polyline points="370.284 300.532 380.25 295.465 370.217 290.532" style="fill:none;fill-opacity:0;stroke-width:1;stroke:#000"/><polyline points="317.454 290.884 307.488 295.951 317.521 300.884" style="fill:none;fill-opacity:0;stroke-width:1;stroke:#000"/></g><text x="337.32" y="314.958" font-size="19.756" style="fill:#000;text-anchor:start;font-family:sans-serif;font-style:normal;font-weight:400"><tspan x="337.32" y="314.958">Δ</tspan></text><text x="351.132" y="318.008" font-size="12.8" style="fill:#000;text-anchor:start;font-family:sans-serif;font-style:normal;font-weight:400"><tspan x="351.132" y="318.008">p</tspan></text></svg>