<svg xmlns="http://www.w3.org/2000/svg" xmlns:xlink="http://www.w3.org/1999/xlink" width="17cm" height="14cm" viewBox="263 200 333 269"><g><rect width="294.081" height="211.53" x="299.726" y="231.06" style="fill:#efefef"/><rect width="294.081" height="211.53" x="299.726" y="231.06" style="fill:none;fill-opacity:0;stroke-width:3;stroke:#000"/></g><g><rect width="114.975" height="73" x="384.9" y="230.3" style="fill:#bfbfbf"/><rect width="114.975" height="73" x="384.9" y="230.3" style="fill:none;fill-opacity:0;stroke-width:2;stroke:#000"/><text x="442.388" y="270.7" font-size="12.8" style="fill:#000;text-anchor:middle;font-family:sans-serif;font-style:normal;font-weight:400"><tspan x="442.388" y="270.7">numerator</tspan></text></g><g><rect width="217.1" height="92.7" x="335.9" y="350.3" style="fill:#bfbfbf"/><rect width="217.1" height="92.7" x="335.9" y="350.3" style="fill:none;fill-opacity:0;stroke-width:2;stroke:#000"/><text x="444.45" y="400.55" font-size="12.8" style="fill:#000;text-anchor:middle;font-family:sans-serif;font-style:normal;font-weight:400"><tspan x="444.45" y="400.55">denominator</tspan></text></g><line x1="301.006" x2="592.716" y1="325.36" y2="325.36" style="fill:none;fill-opacity:0;stroke-width:3;stroke:#000"/><g><line x1="514.196" x2="514.196" y1="238.112" y2="261.14" style="fill:none;fill-opacity:0;stroke-width:1;stroke:#000"/><polyline points="517.196 242.994 514.196 236.994 511.196 242.994" style="fill:none;fill-opacity:0;stroke-width:1;stroke:#000"/><polyline points="511.196 256.258 514.196 262.258 517.196 256.258" style="fill:none;fill-opacity:0;stroke-width:1;stroke:#000"/></g><line x1="506.158" x2="523.606" y1="266.986" y2="266.986" style="fill:none;fill-opacity:0;stroke-width:1;stroke:#000"/><text x="520.222" y="253.056" font-size="12.8" style="fill:#000;text-anchor:start;font-family:sans-serif;font-style:normal;font-weight:400"><tspan x="520.222" y="253.056">u</tspan></text><text x="528.138" y="256.312" font-size="10.16" style="fill:#000;text-anchor:start;font-family:sans-serif;font-style:normal;font-weight:400"><tspan x="528.138" y="256.312">n</tspan></text><g><line x1="514.547" x2="514.455" y1="271.808" y2="296.138" style="fill:none;fill-opacity:0;stroke-width:1;stroke:#000"/><polyline points="517.529 276.701 514.552 270.69 511.529 276.679" style="fill:none;fill-opacity:0;stroke-width:1;stroke:#000"/><polyline points="511.473 291.245 514.45 297.256 517.473 291.267" style="fill:none;fill-opacity:0;stroke-width:1;stroke:#000"/></g><line x1="505.074" x2="522.62" y1="301.246" y2="301.35" style="fill:none;fill-opacity:0;stroke-width:1;stroke:#000"/><text x="521.08" y="287.844" font-size="12.8" style="fill:#000;text-anchor:start;font-family:sans-serif;font-style:normal;font-weight:400"><tspan x="521.08" y="287.844">d</tspan></text><text x="528.874" y="290.846" font-size="10.16" style="fill:#000;text-anchor:start;font-family:sans-serif;font-style:normal;font-weight:400"><tspan x="528.874" y="290.846">n</tspan></text><line x1="557.758" x2="576.12" y1="349.878" y2="350.03" style="fill:none;fill-opacity:0;stroke-width:1;stroke:#000"/><g><line x1="567.696" x2="567.696" y1="356.292" y2="379.32" style="fill:none;fill-opacity:0;stroke-width:1;stroke:#000"/><polyline points="570.696 361.174 567.696 355.174 564.696 361.174" style="fill:none;fill-opacity:0;stroke-width:1;stroke:#000"/><polyline points="564.696 374.438 567.696 380.438 570.696 374.438" style="fill:none;fill-opacity:0;stroke-width:1;stroke:#000"/></g><line x1="557.658" x2="575.106" y1="383.166" y2="383.166" style="fill:none;fill-opacity:0;stroke-width:1;stroke:#000"/><text x="572.222" y="370.738" font-size="12.8" style="fill:#000;text-anchor:start;font-family:sans-serif;font-style:normal;font-weight:400"><tspan x="572.222" y="370.738">u</tspan></text><text x="580.138" y="373.992" font-size="10.16" style="fill:#000;text-anchor:start;font-family:sans-serif;font-style:normal;font-weight:400"><tspan x="580.138" y="373.992">d</tspan></text><g><line x1="566.059" x2="566.117" y1="387.988" y2="437.488" style="fill:none;fill-opacity:0;stroke-width:1;stroke:#000"/><polyline points="569.064 392.866 566.057 386.87 563.064 392.874" style="fill:none;fill-opacity:0;stroke-width:1;stroke:#000"/><polyline points="563.112 432.61 566.119 438.606 569.112 432.602" style="fill:none;fill-opacity:0;stroke-width:1;stroke:#000"/></g><text x="570.578" y="418.026" font-size="12.8" style="fill:#000;text-anchor:start;font-family:sans-serif;font-style:normal;font-weight:400"><tspan x="570.578" y="418.026">d</tspan></text><text x="578.374" y="421.028" font-size="10.16" style="fill:#000;text-anchor:start;font-family:sans-serif;font-style:normal;font-weight:400"><tspan x="578.374" y="421.028">d</tspan></text><line x1="553.244" x2="553.516" y1="331.818" y2="345.87" style="fill:none;fill-opacity:0;stroke-width:1;stroke:#000"/><g><line x1="340.002" x2="551.144" y1="341.944" y2="341.6" style="fill:none;fill-opacity:0;stroke-width:1;stroke:#000"/><polyline points="344.879 338.936 338.884 341.946 344.889 344.936" style="fill:none;fill-opacity:0;stroke-width:1;stroke:#000"/><polyline points="546.267 344.608 552.262 341.598 546.257 338.608" style="fill:none;fill-opacity:0;stroke-width:1;stroke:#000"/></g><text x="438.284" y="337.254" font-size="12.8" style="fill:#000;text-anchor:start;font-family:sans-serif;font-style:normal;font-weight:400"><tspan x="438.284" y="337.254">w</tspan></text><text x="447.784" y="339.254" font-size="10.16" style="fill:#000;text-anchor:start;font-family:sans-serif;font-style:normal;font-weight:400"><tspan x="447.784" y="339.254">d</tspan></text><line x1="336.024" x2="336.12" y1="332.318" y2="348.01" style="fill:none;fill-opacity:0;stroke-width:1;stroke:#000"/><line x1="500.294" x2="500.566" y1="210.884" y2="224.934" style="fill:none;fill-opacity:0;stroke-width:1;stroke:#000"/><g><line x1="388.552" x2="498.194" y1="217.275" y2="217.897" style="fill:none;fill-opacity:0;stroke-width:1;stroke:#000"/><polyline points="393.451 214.302 387.434 217.268 393.417 220.302" style="fill:none;fill-opacity:0;stroke-width:1;stroke:#000"/><polyline points="493.295 220.87 499.312 217.904 493.329 214.87" style="fill:none;fill-opacity:0;stroke-width:1;stroke:#000"/></g><text x="434.958" y="212.41" font-size="12.8" style="fill:#000;text-anchor:start;font-family:sans-serif;font-style:normal;font-weight:400"><tspan x="434.958" y="212.41">w</tspan></text><text x="444.458" y="214.41" font-size="10.16" style="fill:#000;text-anchor:start;font-family:sans-serif;font-style:normal;font-weight:400"><tspan x="444.458" y="214.41">n</tspan></text><line x1="384.574" x2="384.668" y1="210.384" y2="226.074" style="fill:none;fill-opacity:0;stroke-width:1;stroke:#000"/><g><line x1="514.54" x2="514.54" y1="306.414" y2="319.39" style="fill:none;fill-opacity:0;stroke-width:1;stroke:#000"/><polyline points="516.54 309.296 514.54 305.296 512.54 309.296" style="fill:none;fill-opacity:0;stroke-width:1;stroke:#000"/><polyline points="512.54 316.508 514.54 320.508 516.54 316.508" style="fill:none;fill-opacity:0;stroke-width:1;stroke:#000"/></g><g><line x1="567.212" x2="567.212" y1="331.804" y2="344.78" style="fill:none;fill-opacity:0;stroke-width:1;stroke:#000"/><polyline points="569.212 334.686 567.212 330.686 565.212 334.686" style="fill:none;fill-opacity:0;stroke-width:1;stroke:#000"/><polyline points="565.212 341.898 567.212 345.898 569.212 341.898" style="fill:none;fill-opacity:0;stroke-width:1;stroke:#000"/></g><text x="519.154" y="317.406" font-size="12.802" style="fill:#000;text-anchor:start;font-family:sans-serif;font-style:normal;font-weight:400"><tspan x="519.154" y="317.406">Δ</tspan></text><text x="527.64" y="318.708" font-size="10.16" style="fill:#000;text-anchor:start;font-family:sans-serif;font-style:normal;font-weight:400"><tspan x="527.64" y="318.708">v</tspan></text><text x="571.48" y="342.422" font-size="12.802" style="fill:#000;text-anchor:start;font-family:sans-serif;font-style:normal;font-weight:400"><tspan x="571.48" y="342.422">Δ</tspan></text><text x="579.964" y="343.724" font-size="10.16" style="fill:#000;text-anchor:start;font-family:sans-serif;font-style:normal;font-weight:400"><tspan x="579.964" y="343.724">v</tspan></text><line x1="300.46" x2="300.46" y1="333.538" y2="362.436" style="fill:none;fill-opacity:0;stroke-width:1;stroke:#000"/><g><line x1="303.788" x2="331.626" y1="356.45" y2="356.572" style="fill:none;fill-opacity:0;stroke-width:1;stroke:#000"/><polyline points="308.683 353.471 302.67 356.445 308.657 359.471" style="fill:none;fill-opacity:0;stroke-width:1;stroke:#000"/><polyline points="326.731 359.551 332.744 356.577 326.757 353.551" style="fill:none;fill-opacity:0;stroke-width:1;stroke:#000"/></g><text x="310.22" y="370.684" font-size="12.802" style="fill:#000;text-anchor:start;font-family:sans-serif;font-style:normal;font-weight:400"><tspan x="310.22" y="370.684">Δ</tspan></text><text x="318.706" y="371.986" font-size="10.16" style="fill:#000;text-anchor:start;font-family:sans-serif;font-style:normal;font-weight:400"><tspan x="318.706" y="371.986">h</tspan></text><text x="264.292" y="222.066" font-size="12.8" style="fill:#000;text-anchor:start;font-family:sans-serif;font-style:normal;font-weight:400"><tspan x="264.292" y="222.066">(x , y )</tspan></text><text x="276.794" y="224.796" font-size="10.16" style="fill:#000;text-anchor:start;font-family:sans-serif;font-style:normal;font-weight:400"><tspan x="276.794" y="224.796">f</tspan></text><text x="295.328" y="225.182" font-size="10.16" style="fill:#000;text-anchor:start;font-family:sans-serif;font-style:normal;font-weight:400"><tspan x="295.328" y="225.182">f</tspan></text><g><ellipse cx="299.627" cy="230.909" rx="2.215" ry="2.215" style="fill:#000"/><ellipse cx="299.627" cy="230.909" rx="2.215" ry="2.215" style="fill:none;fill-opacity:0;stroke-width:3;stroke:#000"/><ellipse cx="299.627" cy="230.909" rx="2.215" ry="2.215" style="fill:none;fill-opacity:0;stroke-width:3;stroke:#000"/></g><g><ellipse cx="384.627" cy="230.741" rx="2.215" ry="2.215" style="fill:#000"/><ellipse cx="384.627" cy="230.741" rx="2.215" ry="2.215" style="fill:none;fill-opacity:0;stroke-width:3;stroke:#000"/><ellipse cx="384.627" cy="230.741" rx="2.215" ry="2.215" style="fill:none;fill-opacity:0;stroke-width:3;stroke:#000"/></g><g><ellipse cx="336.155" cy="350.171" rx="2.215" ry="2.215" style="fill:#000"/><ellipse cx="336.155" cy="350.171" rx="2.215" ry="2.215" style="fill:none;fill-opacity:0;stroke-width:3;stroke:#000"/><ellipse cx="336.155" cy="350.171" rx="2.215" ry="2.215" style="fill:none;fill-opacity:0;stroke-width:3;stroke:#000"/></g><text x="337.67" y="222.84" font-size="12.8" style="fill:#000;text-anchor:start;font-family:sans-serif;font-style:normal;font-weight:400"><tspan x="337.67" y="222.84">(x , y )</tspan></text><text x="350.172" y="225.57" font-size="10.16" style="fill:#000;text-anchor:start;font-family:sans-serif;font-style:normal;font-weight:400"><tspan x="350.172" y="225.57">n</tspan></text><text x="372.562" y="225.57" font-size="10.16" style="fill:#000;text-anchor:start;font-family:sans-serif;font-style:normal;font-weight:400"><tspan x="372.562" y="225.57">n</tspan></text><text x="338.042" y="365.498" font-size="12.8" style="fill:#000;text-anchor:start;font-family:sans-serif;font-style:normal;font-weight:400"><tspan x="338.042" y="365.498">(x , y )</tspan></text><text x="350.542" y="368.228" font-size="10.16" style="fill:#000;text-anchor:start;font-family:sans-serif;font-style:normal;font-weight:400"><tspan x="350.542" y="368.228">d</tspan></text><text x="372.348" y="368.614" font-size="10.16" style="fill:#000;text-anchor:start;font-family:sans-serif;font-style:normal;font-weight:400"><tspan x="372.348" y="368.614">d</tspan></text><line x1="593.814" x2="594.084" y1="447.4" y2="461.452" style="fill:none;fill-opacity:0;stroke-width:1;stroke:#000"/><g><line x1="304.948" x2="588.472" y1="453.277" y2="453.623" style="fill:none;fill-opacity:0;stroke-width:1;stroke:#000"/><polyline points="309.834 450.283 303.83 453.275 309.826 456.283" style="fill:none;fill-opacity:0;stroke-width:1;stroke:#000"/><polyline points="583.586 456.617 589.59 453.625 583.594 450.617" style="fill:none;fill-opacity:0;stroke-width:1;stroke:#000"/></g><text x="445.35" y="464.45" font-size="12.8" style="fill:#000;text-anchor:start;font-family:sans-serif;font-style:normal;font-weight:400"><tspan x="445.35" y="464.45">w</tspan></text><text x="455.556" y="466.45" font-size="10.16" style="fill:#000;text-anchor:start;font-family:sans-serif;font-style:normal;font-weight:400"><tspan x="455.556" y="466.45">f</tspan></text><line x1="299.55" x2="299.646" y1="447.254" y2="462.944" style="fill:none;fill-opacity:0;stroke-width:1;stroke:#000"/><line x1="273.738" x2="291.186" y1="325.726" y2="325.726" style="fill:none;fill-opacity:0;stroke-width:1;stroke:#000"/><g><line x1="282.137" x2="282.295" y1="330.548" y2="436.32" style="fill:none;fill-opacity:0;stroke-width:1;stroke:#000"/><polyline points="285.145 335.426 282.136 329.43 279.145 335.434" style="fill:none;fill-opacity:0;stroke-width:1;stroke:#000"/><polyline points="279.287 431.442 282.296 437.438 285.287 431.434" style="fill:none;fill-opacity:0;stroke-width:1;stroke:#000"/></g><line x1="272.652" x2="290.198" y1="442.636" y2="442.74" style="fill:none;fill-opacity:0;stroke-width:1;stroke:#000"/><text x="263.09" y="385.234" font-size="12.8" style="fill:#000;text-anchor:start;font-family:sans-serif;font-style:normal;font-weight:400"><tspan x="263.09" y="385.234">d</tspan></text><text x="270.884" y="388.236" font-size="10.16" style="fill:#000;text-anchor:start;font-family:sans-serif;font-style:normal;font-weight:400"><tspan x="270.884" y="388.236">f</tspan></text><line x1="273.224" x2="290.672" y1="230.53" y2="230.53" style="fill:none;fill-opacity:0;stroke-width:1;stroke:#000"/><g><line x1="282.885" x2="282.637" y1="238.034" y2="318.32" style="fill:none;fill-opacity:0;stroke-width:1;stroke:#000"/><polyline points="285.87 242.925 282.889 236.916 279.87 242.907" style="fill:none;fill-opacity:0;stroke-width:1;stroke:#000"/><polyline points="279.652 313.429 282.633 319.438 285.652 313.447" style="fill:none;fill-opacity:0;stroke-width:1;stroke:#000"/></g><text x="266.184" y="281.768" font-size="12.8" style="fill:#000;text-anchor:start;font-family:sans-serif;font-style:normal;font-weight:400"><tspan x="266.184" y="281.768">u</tspan></text><text x="273.978" y="284.77" font-size="10.16" style="fill:#000;text-anchor:start;font-family:sans-serif;font-style:normal;font-weight:400"><tspan x="273.978" y="284.77">f</tspan></text></svg>