<svg xmlns="http://www.w3.org/2000/svg" xmlns:xlink="http://www.w3.org/1999/xlink" width="6cm" height="5cm" viewBox="256 111 103 99"><g><rect width="71.476" height="68.112" x="284.89" y="113.769" style="fill:#bfbfbf"/><rect width="71.476" height="68.112" x="284.89" y="113.769" style="fill:none;fill-opacity:0;stroke-width:4;stroke:#000"/></g><text x="289.044" y="175.995" font-size="67.732" style="fill:#000;text-anchor:start;font-family:sans-serif;font-style:normal;font-weight:400"><tspan x="289.044" y="175.995">x</tspan></text><text x="327.986" y="149.046" font-size="39.511" style="fill:#000;text-anchor:start;font-family:sans-serif;font-style:normal;font-weight:400"><tspan x="327.986" y="149.046">2</tspan></text><line x1="284.374" x2="284.374" y1="187.556" y2="205.215" style="fill:none;fill-opacity:0;stroke-width:2;stroke:#000"/><line x1="357.112" x2="357.112" y1="187.538" y2="205.196" style="fill:none;fill-opacity:0;stroke-width:2;stroke:#000"/><line x1="279.112" x2="262.253" y1="181.982" y2="181.982" style="fill:none;fill-opacity:0;stroke-width:2;stroke:#000"/><line x1="279.437" x2="261.929" y1="113.412" y2="113.737" style="fill:none;fill-opacity:0;stroke-width:2;stroke:#000"/><line x1="278.653" x2="261.795" y1="156.251" y2="156.251" style="fill:none;fill-opacity:0;stroke-width:2;stroke:#000"/><g><line x1="290.426" x2="350.471" y1="196.572" y2="196.572" style="fill:none;fill-opacity:0;stroke-width:1;stroke:#000"/><polyline points="295.308 193.572 289.308 196.572 295.308 199.572" style="fill:none;fill-opacity:0;stroke-width:1;stroke:#000"/><polyline points="345.59 199.572 351.59 196.572 345.59 193.572" style="fill:none;fill-opacity:0;stroke-width:1;stroke:#000"/></g><g><line x1="270.359" x2="270.359" y1="161.2" y2="177.801" style="fill:none;fill-opacity:0;stroke-width:1;stroke:#000"/><polyline points="273.359 166.082 270.359 160.082 267.359 166.082" style="fill:none;fill-opacity:0;stroke-width:1;stroke:#000"/><polyline points="267.359 172.919 270.359 178.919 273.359 172.919" style="fill:none;fill-opacity:0;stroke-width:1;stroke:#000"/></g><g><line x1="270.364" x2="270.434" y1="118.161" y2="150.841" style="fill:none;fill-opacity:0;stroke-width:1;stroke:#000"/><polyline points="273.374 123.037 270.361 117.043 267.374 123.05" style="fill:none;fill-opacity:0;stroke-width:1;stroke:#000"/><polyline points="267.424 145.965 270.437 151.959 273.424 145.952" style="fill:none;fill-opacity:0;stroke-width:1;stroke:#000"/></g><text x="316.128" y="207.461" font-size="12.8" style="fill:#000;text-anchor:start;font-family:sans-serif;font-style:normal;font-weight:400"><tspan x="316.128" y="207.461">w</tspan></text><text x="256.418" y="137.647" font-size="12.8" style="fill:#000;text-anchor:start;font-family:sans-serif;font-style:normal;font-weight:400"><tspan x="256.418" y="137.647">u</tspan></text><text x="256.094" y="174.283" font-size="12.8" style="fill:#000;text-anchor:start;font-family:sans-serif;font-style:normal;font-weight:400"><tspan x="256.094" y="174.283">d</tspan></text></svg>